<svg width="35" height="30" viewBox="0 0 35 30" fill="none" xmlns="http://www.w3.org/2000/svg">
<rect width="35" height="30" fill="#1A9DCD" fill-opacity="0.8"/>
<path d="M29.7071 15.7071C30.0976 15.3166 30.0976 14.6834 29.7071 14.2929L23.3431 7.92893C22.9526 7.53841 22.3195 7.53841 21.9289 7.92893C21.5384 8.31946 21.5384 8.95262 21.9289 9.34315L27.5858 15L21.9289 20.6569C21.5384 21.0474 21.5384 21.6805 21.9289 22.0711C22.3195 22.4616 22.9526 22.4616 23.3431 22.0711L29.7071 15.7071ZM7 16H29V14H7V16Z" fill="#F0EEE8"/>
<path d="M7 16H29V14H7V16ZM29 14H7V16H29V14Z" fill="#F0EEE8" fill-opacity="0.8"/>
<rect x="1" y="1" width="33" height="28" stroke="#F0EEE8" stroke-opacity="0.8" stroke-width="2"/>
</svg>
