<svg width="17" height="20" viewBox="0 0 17 20" fill="none" xmlns="http://www.w3.org/2000/svg">
<path d="M6.3125 0L6.90625 1V6L4.90625 7V2L5.5 1H2.40625L3 2V7L1 6L0 5L1 7L3 8V11L2.40625 12H5.59375L5 11V8L7 7V12L6.5 13H9.59375L9.09375 12V6C9.09375 6 10.9922 5.10156 11.0938 5V10L10.0938 9L11.2188 13.5L10.2188 13L12 20V15.6875L13 16L12 12L13 13V9C13.3008 9.39844 14 10 14 10C14.3008 10 16.1992 9.48828 16.5 9.1875L17 5C17 5 16.0938 2.78906 15.5938 2.1875C15.4922 2.1875 13.6016 2.89844 13 3V2L11 3V4L9 5V1L9.59375 0H6.3125ZM14.7188 3.40625C14.7188 3.40625 15 6.80078 15 7V8C15 8 14 9.10156 14 9L13 8V4C13.3984 3.89844 14.6172 3.30469 14.7188 3.40625Z" fill="#F0EEE8"/>
</svg>
