<svg width="13" height="13" viewBox="0 0 13 13" fill="none" xmlns="http://www.w3.org/2000/svg">
<g clip-path="url(#clip0_60:185)">
<path d="M10.413 6.50001H6.93337V11.9838C6.73613 12.2182 6.58869 12.4902 6.50004 12.7833C6.41138 12.4902 6.26394 12.2182 6.0667 11.9838V6.50001H2.58704C2.6956 6.22057 2.77263 5.92988 2.8167 5.63334H6.0667V1.49718C6.2162 1.51018 6.36137 1.51668 6.50004 1.51668C6.6387 1.51668 6.78387 1.51018 6.93337 1.49718V5.63334H10.1834C10.2274 5.92988 10.3045 6.22057 10.413 6.50001Z" fill="#F0EEE8"/>
<path d="M6.06667 1.49717V5.63334H2.81667C3.01817 4.36151 2.6455 2.98784 1.73334 1.73334L3.46667 0.216675C4.14856 0.94579 5.07302 1.40109 6.06667 1.49717V1.49717Z" fill="#BA2A2A"/>
<path d="M5.98357 6.5V11.9838C5.22957 11.128 4.05307 11.5613 3.1669 9.96667L2.5169 10.6167L0.783565 8.66667C1.55633 8.12798 2.1544 7.37475 2.5039 6.5H5.98357Z" fill="#1E1515"/>
<path d="M6.50001 12.7833C6.58867 12.4902 6.73611 12.2181 6.93335 11.9838V10.9778C6.76435 11.1685 6.34654 11.5104 6.22015 11.9438C6.10099 11.5884 6.38085 12.428 6.50001 12.7833Z" fill="#F0EEE8"/>
<path d="M10.25 5.41667H7V1.2805C7.99365 1.18441 8.91811 0.729115 9.6 0L11.3333 1.51667C10.4212 2.77117 10.0485 4.14483 10.25 5.41667Z" fill="#1E1515"/>
<path d="M6.06667 1.49717V5.63334H2.81667C3.01817 4.36151 2.6455 2.98784 1.73334 1.73334L3.46667 0.216675C4.14856 0.94579 5.07302 1.40109 6.06667 1.49717V1.49717Z" fill="#BA2A2A"/>
<path d="M11.4833 1.73334L9.75001 0.216675C9.61041 0.356263 9.46301 0.487834 9.30853 0.610759L10.6843 1.81459C9.79151 3.04251 9.41705 4.38435 9.59048 5.63334H10.4C10.1985 4.36151 10.5712 2.98784 11.4833 1.73334Z" fill="#171717"/>
<path d="M12.1333 8.66667L10.4 10.6167L9.75002 9.96667C8.86385 11.5613 7.68735 11.128 6.93335 11.9838V6.5H10.413C10.7625 7.37475 11.3606 8.12798 12.1333 8.66667Z" fill="#FBC12E"/>
<path d="M11.8909 8.47784C11.8211 8.42023 11.753 8.36179 11.6867 8.30252C11.1235 7.81276 10.6866 7.19446 10.413 6.5L9.61851 6.59028C9.96267 7.45166 10.5486 8.19513 11.3057 8.7311L10.4 9.74995L9.83291 9.24475C9.81084 9.22493 9.78491 9.20988 9.75675 9.20055C9.72859 9.19121 9.6988 9.1878 9.66926 9.19051C9.63971 9.19323 9.61105 9.20202 9.58506 9.21634C9.55908 9.23065 9.53633 9.25018 9.51824 9.27369C8.20627 11.0229 7.73231 10.3458 6.93335 11.1171V11.9838C7.68735 11.128 8.86385 11.5613 9.75002 9.96667L10.0219 10.2385L10.4 10.6167L12.1333 8.66667C12.0492 8.60535 11.9697 8.54175 11.8909 8.47784Z" fill="#E6B231"/>
<path d="M10.1833 5.63335H9.38434C9.42841 5.92988 9.50544 6.22057 9.614 6.50001H10.413C10.3044 6.22057 10.2274 5.92988 10.1833 5.63335V5.63335Z" fill="#F0EEE8"/>
<path d="M6.06665 1.49718V1.50068C6.07822 1.49968 6.08888 1.49999 6.10049 1.49893C6.08887 1.49784 6.07833 1.49834 6.06665 1.49718Z" fill="#F57B02"/>
<path d="M6.13435 1.49718C6.12268 1.49835 6.11215 1.49785 6.10052 1.49893C6.11214 1.49999 6.12278 1.49969 6.13435 1.50068V1.49718Z" fill="#F57B02"/>
<path d="M6.06667 1.49717V5.63334H2.81667C3.01817 4.36151 2.6455 2.98784 1.73334 1.73334L3.46667 0.216675C4.14856 0.94579 5.07302 1.40109 6.06667 1.49717Z" fill="#FBC12E"/>
<path d="M12.2608 8.49195C10.0539 6.88695 9.72483 4.2222 11.4419 1.8613C11.4737 1.81757 11.488 1.7635 11.482 1.70975C11.476 1.65599 11.4501 1.60642 11.4094 1.57079L9.67606 0.0541262C9.63469 0.0179381 9.58111 -0.00117796 9.52617 0.00064752C9.47123 0.002473 9.41904 0.0251037 9.38016 0.0639586C9.01303 0.459728 8.56707 0.774223 8.07102 0.987191C7.57497 1.20016 7.03981 1.30688 6.50001 1.30048C5.96021 1.30688 5.42506 1.20016 4.92901 0.987191C4.43295 0.774223 3.987 0.459728 3.61986 0.0639586C3.58098 0.0250995 3.52879 0.00246534 3.47385 0.000638617C3.41892 -0.00118811 3.36534 0.0179291 3.32396 0.0541197L1.59063 1.57079C1.54993 1.60642 1.52403 1.65598 1.51802 1.70974C1.51201 1.7635 1.52632 1.81756 1.55815 1.8613C3.27519 4.2222 2.94617 6.88695 0.739197 8.49194C0.714756 8.50974 0.694309 8.53245 0.679168 8.55862C0.664027 8.58479 0.654527 8.61384 0.651279 8.6439C0.648031 8.67396 0.651107 8.70436 0.660308 8.73316C0.669509 8.76196 0.684633 8.78852 0.704708 8.81113L2.43804 10.7611C2.45767 10.7832 2.4816 10.801 2.50836 10.8135C2.53512 10.826 2.56415 10.8328 2.59366 10.8337C2.62324 10.8352 2.65279 10.8303 2.68031 10.8193C2.70783 10.8084 2.73269 10.7917 2.7532 10.7703L3.20748 10.3162C3.74438 11.1367 4.36635 11.3624 4.9205 11.5635C5.52067 11.7813 5.99474 11.9533 6.29445 12.8524C6.30885 12.8955 6.33644 12.933 6.37333 12.9596C6.41022 12.9862 6.45454 13.0005 6.50001 13.0005C6.54548 13.0005 6.5898 12.9862 6.62669 12.9596C6.66358 12.933 6.69118 12.8955 6.70557 12.8524C7.00528 11.9533 7.47935 11.7813 8.07951 11.5635C8.63366 11.3624 9.25563 11.1367 9.79253 10.3162L10.2468 10.7703C10.2674 10.7916 10.2922 10.8083 10.3198 10.8192C10.3473 10.8302 10.3768 10.8351 10.4064 10.8337C10.4359 10.8328 10.4649 10.826 10.4917 10.8135C10.5184 10.801 10.5424 10.7832 10.562 10.7611L12.2953 8.81113C12.3154 8.78852 12.3305 8.76196 12.3397 8.73316C12.3489 8.70436 12.352 8.67396 12.3488 8.6439C12.3455 8.61384 12.336 8.58479 12.3209 8.55862C12.3057 8.53245 12.2853 8.50974 12.2608 8.49194L12.2608 8.49195ZM9.54054 0.511364L10.977 1.76819C10.1522 2.96837 9.81263 4.23395 9.93235 5.41714H7.15001V1.68464C8.05073 1.55572 8.88754 1.14501 9.54054 0.511364V0.511364ZM2.02301 1.76819L3.45949 0.511364C4.11249 1.14501 4.94929 1.55572 5.85001 1.68464V5.41715H3.06768C3.1874 4.23396 2.84785 2.96838 2.02301 1.76819ZM5.0683 11.1562C4.50801 10.9528 3.92868 10.7426 3.43939 9.86187C3.42309 9.83258 3.40022 9.80746 3.37257 9.7885C3.34492 9.76954 3.31326 9.75724 3.28006 9.75259C3.2701 9.7512 3.26006 9.7505 3.25001 9.75048C3.22156 9.75049 3.19339 9.75609 3.16711 9.76699C3.14082 9.77788 3.11694 9.79384 3.09683 9.81396L2.60933 10.3015L1.18427 8.69836C1.85964 8.17945 2.39246 7.49782 2.73297 6.71716H5.85001V11.5137C5.60446 11.3641 5.34206 11.2441 5.0683 11.1562L5.0683 11.1562ZM6.50001 12.2333C6.43781 12.1196 6.36529 12.0119 6.28335 11.9116V6.50048C6.28335 6.44302 6.26052 6.38791 6.21989 6.34728C6.17925 6.30664 6.12414 6.28382 6.06668 6.28382H2.89149C2.93552 6.14131 2.97236 5.99669 3.00186 5.85048H6.06668C6.12414 5.85048 6.17925 5.82765 6.21989 5.78702C6.26052 5.74639 6.28335 5.69128 6.28335 5.63382V1.72429C6.35555 1.72751 6.4265 1.73382 6.50001 1.73382C6.57353 1.73382 6.64447 1.72751 6.71668 1.72429V5.63382C6.71668 5.69128 6.73951 5.74639 6.78014 5.78702C6.82077 5.82765 6.87588 5.85048 6.93335 5.85048H9.99817C10.0277 5.99669 10.0645 6.14131 10.1085 6.28382H6.93335C6.87588 6.28382 6.82077 6.30664 6.78014 6.34728C6.73951 6.38791 6.71668 6.44302 6.71668 6.50048V11.9116C6.63474 12.0119 6.56221 12.1196 6.50001 12.2333V12.2333ZM10.3907 10.3015L9.9032 9.81396C9.87949 9.79025 9.8506 9.77237 9.81881 9.76172C9.78701 9.75108 9.75318 9.74795 9.71998 9.7526C9.68677 9.75724 9.6551 9.76953 9.62745 9.7885C9.5998 9.80746 9.57693 9.83258 9.56064 9.86188C9.07134 10.7426 8.49201 10.9528 7.93172 11.1562C7.65796 11.2441 7.39557 11.3641 7.15001 11.5137V6.71715H10.2671C10.6076 7.49782 11.1404 8.17944 11.8158 8.69835L10.3907 10.3015Z" fill="black"/>
<path d="M12.2608 8.49195C10.0539 6.88695 9.72483 4.2222 11.4419 1.8613C11.4737 1.81757 11.488 1.7635 11.482 1.70975C11.476 1.65599 11.4501 1.60642 11.4094 1.57079L9.67606 0.0541262C9.63469 0.0179381 9.58111 -0.00117796 9.52617 0.00064752C9.47123 0.002473 9.41904 0.0251037 9.38016 0.0639586C9.01302 0.459728 8.56707 0.774223 8.07102 0.987191C7.57497 1.20016 7.03981 1.30688 6.50001 1.30048C5.96021 1.30688 5.42506 1.20016 4.929 0.987191C4.43295 0.774223 3.987 0.459728 3.61986 0.0639586C3.58098 0.0250995 3.52879 0.00246534 3.47385 0.000638617C3.41892 -0.00118811 3.36534 0.0179291 3.32396 0.0541197L1.59063 1.57079C1.54993 1.60642 1.52403 1.65598 1.51802 1.70974C1.51201 1.7635 1.52632 1.81756 1.55815 1.8613C3.27519 4.2222 2.94617 6.88695 0.739197 8.49195C0.714756 8.50974 0.694309 8.53246 0.679168 8.55862C0.664027 8.58479 0.654527 8.61384 0.651279 8.6439C0.648031 8.67396 0.651107 8.70436 0.660308 8.73316C0.669509 8.76196 0.684633 8.78852 0.704708 8.81113L2.43804 10.7611C2.45767 10.7832 2.4816 10.801 2.50836 10.8135C2.53512 10.826 2.56415 10.8329 2.59366 10.8337C2.62324 10.8352 2.65279 10.8303 2.68031 10.8193C2.70783 10.8084 2.73269 10.7917 2.7532 10.7703L3.20748 10.3162C3.74438 11.1367 4.36635 11.3624 4.9205 11.5635C5.52067 11.7813 5.99474 11.9533 6.29445 12.8524C6.30885 12.8955 6.33644 12.933 6.37333 12.9596C6.41022 12.9862 6.45454 13.0005 6.50001 13.0005C6.54548 13.0005 6.5898 12.9862 6.62669 12.9596C6.66358 12.933 6.69118 12.8955 6.70557 12.8524C7.00528 11.9533 7.47935 11.7813 8.07951 11.5635C8.63366 11.3624 9.25563 11.1367 9.79253 10.3162L10.2468 10.7703C10.2674 10.7916 10.2922 10.8083 10.3198 10.8192C10.3473 10.8302 10.3768 10.8351 10.4064 10.8337C10.4359 10.8329 10.4649 10.826 10.4917 10.8135C10.5184 10.801 10.5424 10.7832 10.562 10.7611L12.2953 8.81113C12.3154 8.78852 12.3305 8.76196 12.3397 8.73316C12.3489 8.70436 12.352 8.67396 12.3488 8.6439C12.3455 8.61384 12.336 8.58479 12.3209 8.55862C12.3057 8.53246 12.2853 8.50975 12.2608 8.49195ZM9.54054 0.511364L10.977 1.76819C10.1522 2.96837 9.81263 4.23395 9.93235 5.41714H7.15001V1.68464C8.05073 1.55572 8.88754 1.14501 9.54054 0.511364ZM2.02301 1.76819L3.45949 0.511364C4.11248 1.14501 4.94929 1.55572 5.85001 1.68464V5.41715H3.06768C3.1874 4.23396 2.84785 2.96838 2.02301 1.76819ZM5.0683 11.1562C4.50801 10.9528 3.92868 10.7426 3.43939 9.86187C3.42309 9.83258 3.40022 9.80746 3.37257 9.7885C3.34492 9.76954 3.31326 9.75724 3.28006 9.75259C3.2701 9.75121 3.26006 9.7505 3.25001 9.75048C3.22156 9.75049 3.19339 9.7561 3.16711 9.76699C3.14082 9.77788 3.11694 9.79384 3.09683 9.81397L2.60933 10.3015L1.18427 8.69836C1.85964 8.17945 2.39246 7.49782 2.73297 6.71716H5.85001V11.5137C5.60446 11.3641 5.34206 11.2441 5.0683 11.1562ZM6.50001 12.2333C6.43781 12.1196 6.36528 12.0119 6.28335 11.9116V6.50048C6.28335 6.44302 6.26052 6.38791 6.21988 6.34728C6.17925 6.30664 6.12414 6.28382 6.06668 6.28382H2.89149C2.93552 6.14131 2.97236 5.99669 3.00186 5.85048H6.06668C6.12414 5.85048 6.17925 5.82766 6.21988 5.78702C6.26052 5.74639 6.28335 5.69128 6.28335 5.63382V1.72429C6.35555 1.72751 6.4265 1.73382 6.50001 1.73382C6.57352 1.73382 6.64447 1.72751 6.71668 1.72429V5.63382C6.71668 5.69128 6.73951 5.74639 6.78014 5.78702C6.82077 5.82766 6.87588 5.85048 6.93334 5.85048H9.99817C10.0277 5.99669 10.0645 6.14131 10.1085 6.28382H6.93334C6.87588 6.28382 6.82077 6.30664 6.78014 6.34728C6.73951 6.38791 6.71668 6.44302 6.71668 6.50048V11.9116C6.63474 12.0119 6.56221 12.1196 6.50001 12.2333ZM10.3907 10.3015L9.9032 9.81396C9.87949 9.79025 9.8506 9.77237 9.8188 9.76173C9.78701 9.75108 9.75318 9.74795 9.71998 9.7526C9.68677 9.75724 9.6551 9.76953 9.62745 9.7885C9.5998 9.80746 9.57693 9.83258 9.56063 9.86189C9.07134 10.7426 8.49201 10.9528 7.93172 11.1562C7.65796 11.2441 7.39556 11.3641 7.15001 11.5137V6.71715H10.2671C10.6076 7.49782 11.1404 8.17944 11.8158 8.69835L10.3907 10.3015Z" fill="#F0EEE8"/>
</g>
<defs>
<clipPath id="clip0_60:185">
<rect width="13" height="13" fill="white"/>
</clipPath>
</defs>
</svg>
