<svg width="13" height="13" viewBox="0 0 13 13" fill="none" xmlns="http://www.w3.org/2000/svg">
<g clip-path="url(#clip0_60:2)">
<path d="M10.413 6.50001H6.93334V11.9838C6.7361 12.2182 6.58866 12.4902 6.5 12.7833C6.41135 12.4902 6.2639 12.2182 6.06667 11.9838V6.50001H2.587C2.69556 6.22057 2.7726 5.92988 2.81667 5.63334H6.06667V1.49718C6.21617 1.51018 6.36134 1.51668 6.5 1.51668C6.63867 1.51668 6.78384 1.51018 6.93334 1.49718V5.63334H10.1833C10.2274 5.92988 10.3044 6.22057 10.413 6.50001Z" fill="#F0EEE8"/>
<path d="M6.06667 1.49717V5.63334H2.81667C3.01817 4.36151 2.6455 2.98784 1.73333 1.73334L3.46667 0.216675C4.14855 0.94579 5.07302 1.40109 6.06667 1.49717V1.49717Z" fill="#BA2A2A"/>
<path d="M5.98356 6.5V11.9838C5.22956 11.128 4.05306 11.5613 3.16689 9.96667L2.51689 10.6167L0.783558 8.66667C1.55632 8.12798 2.15439 7.37475 2.50389 6.5H5.98356Z" fill="#DA9F65"/>
<path d="M6.5 12.7833C6.58865 12.4902 6.7361 12.2181 6.93333 11.9838V10.9778C6.76433 11.1685 6.34653 11.5104 6.22014 11.9438C6.10097 11.5884 6.38083 12.428 6.5 12.7833Z" fill="#F0EEE8"/>
<path d="M10.25 5.41667H7V1.2805C7.99365 1.18441 8.91811 0.729115 9.6 0L11.3333 1.51667C10.4212 2.77117 10.0485 4.14483 10.25 5.41667Z" fill="#DA9F65"/>
<path d="M6.06667 1.49717V5.63334H2.81667C3.01817 4.36151 2.6455 2.98784 1.73333 1.73334L3.46667 0.216675C4.14855 0.94579 5.07302 1.40109 6.06667 1.49717V1.49717Z" fill="#BA2A2A"/>
<path d="M11.4833 1.73334L9.75001 0.216675C9.6104 0.356263 9.463 0.487834 9.30853 0.610759L10.6843 1.81459C9.7915 3.04251 9.41705 4.38435 9.59047 5.63334H10.4C10.1985 4.36151 10.5712 2.98784 11.4833 1.73334Z" fill="#C98645"/>
<path d="M12.1333 8.66667L10.4 10.6167L9.75 9.96667C8.86383 11.5613 7.68733 11.128 6.93333 11.9838V6.5H10.413C10.7625 7.37475 11.3606 8.12798 12.1333 8.66667Z" fill="#0288D0"/>
<path d="M11.8909 8.47784C11.821 8.42023 11.753 8.36179 11.6867 8.30252C11.1234 7.81276 10.6865 7.19446 10.413 6.5L9.6185 6.59028C9.96266 7.45166 10.5486 8.19513 11.3056 8.7311L10.4 9.74995L9.8329 9.24475C9.81082 9.22493 9.78489 9.20988 9.75673 9.20055C9.72857 9.19121 9.69878 9.1878 9.66924 9.19051C9.6397 9.19323 9.61104 9.20202 9.58505 9.21634C9.55906 9.23065 9.53631 9.25018 9.51823 9.27369C8.20625 11.0229 7.73229 10.3458 6.93333 11.1171V11.9838C7.68733 11.128 8.86383 11.5613 9.75 9.96667L10.0219 10.2385L10.4 10.6167L12.1333 8.66667C12.0492 8.60535 11.9697 8.54175 11.8909 8.47784Z" fill="#0C74AB"/>
<path d="M10.1833 5.63335H9.38434C9.42841 5.92988 9.50544 6.22057 9.614 6.50001H10.413C10.3044 6.22057 10.2274 5.92988 10.1833 5.63335V5.63335Z" fill="#F0EEE8"/>
<path d="M6.06667 1.49718V1.50068C6.07824 1.49968 6.0889 1.49999 6.10051 1.49893C6.08888 1.49784 6.07834 1.49834 6.06667 1.49718Z" fill="#F57B02"/>
<path d="M6.13434 1.49718C6.12266 1.49835 6.11213 1.49785 6.10051 1.49893C6.11212 1.49999 6.12277 1.49969 6.13434 1.50068V1.49718Z" fill="#F57B02"/>
<path d="M6.06667 1.49717V5.63334H2.81667C3.01817 4.36151 2.6455 2.98784 1.73333 1.73334L3.46667 0.216675C4.14855 0.94579 5.07302 1.40109 6.06667 1.49717Z" fill="#0288D0"/>
<path d="M12.2608 8.49195C10.0539 6.88695 9.72482 4.2222 11.4419 1.8613C11.4737 1.81757 11.488 1.7635 11.482 1.70975C11.476 1.65599 11.4501 1.60642 11.4094 1.57079L9.67605 0.0541262C9.63468 0.0179381 9.5811 -0.00117796 9.52616 0.00064752C9.47122 0.002473 9.41903 0.0251037 9.38015 0.0639586C9.01301 0.459728 8.56706 0.774223 8.07101 0.987191C7.57496 1.20016 7.0398 1.30688 6.5 1.30048C5.9602 1.30688 5.42505 1.20016 4.92899 0.987191C4.43294 0.774223 3.98699 0.459728 3.61985 0.0639586C3.58097 0.0250995 3.52878 0.00246534 3.47384 0.000638617C3.41891 -0.00118811 3.36533 0.0179291 3.32395 0.0541197L1.59062 1.57079C1.54992 1.60642 1.52402 1.65598 1.51801 1.70974C1.512 1.7635 1.52631 1.81756 1.55814 1.8613C3.27518 4.2222 2.94616 6.88695 0.739185 8.49194C0.714745 8.50974 0.694297 8.53245 0.679156 8.55862C0.664015 8.58479 0.654516 8.61384 0.651268 8.6439C0.64802 8.67396 0.651095 8.70436 0.660296 8.73316C0.669498 8.76196 0.684622 8.78852 0.704697 8.81113L2.43803 10.7611C2.45766 10.7832 2.48159 10.801 2.50835 10.8135C2.53511 10.826 2.56414 10.8328 2.59365 10.8337C2.62323 10.8352 2.65278 10.8303 2.6803 10.8193C2.70782 10.8084 2.73268 10.7917 2.75319 10.7703L3.20747 10.3162C3.74437 11.1367 4.36634 11.3624 4.92049 11.5635C5.52066 11.7813 5.99473 11.9533 6.29444 12.8524C6.30883 12.8955 6.33643 12.933 6.37332 12.9596C6.41021 12.9862 6.45453 13.0005 6.5 13.0005C6.54547 13.0005 6.58979 12.9862 6.62668 12.9596C6.66357 12.933 6.69117 12.8955 6.70556 12.8524C7.00527 11.9533 7.47933 11.7813 8.0795 11.5635C8.63365 11.3624 9.25562 11.1367 9.79252 10.3162L10.2468 10.7703C10.2674 10.7916 10.2922 10.8083 10.3197 10.8192C10.3473 10.8302 10.3768 10.8351 10.4064 10.8337C10.4359 10.8328 10.4649 10.826 10.4917 10.8135C10.5184 10.801 10.5424 10.7832 10.562 10.7611L12.2953 8.81113C12.3154 8.78852 12.3305 8.76196 12.3397 8.73316C12.3489 8.70436 12.352 8.67396 12.3487 8.6439C12.3455 8.61384 12.336 8.58479 12.3209 8.55862C12.3057 8.53245 12.2853 8.50974 12.2608 8.49194L12.2608 8.49195ZM9.54053 0.511364L10.977 1.76819C10.1522 2.96837 9.81262 4.23395 9.93234 5.41714H7.15V1.68464C8.05072 1.55572 8.88753 1.14501 9.54053 0.511364V0.511364ZM2.023 1.76819L3.45947 0.511364C4.11247 1.14501 4.94928 1.55572 5.85 1.68464V5.41715H3.06767C3.18738 4.23396 2.84784 2.96838 2.023 1.76819ZM5.06829 11.1562C4.508 10.9528 3.92867 10.7426 3.43937 9.86187C3.42308 9.83258 3.4002 9.80746 3.37256 9.7885C3.34491 9.76954 3.31325 9.75724 3.28005 9.75259C3.27009 9.7512 3.26005 9.7505 3.25 9.75048C3.22155 9.75049 3.19338 9.75609 3.1671 9.76699C3.14081 9.77788 3.11693 9.79384 3.09682 9.81396L2.60932 10.3015L1.18426 8.69836C1.85963 8.17945 2.39245 7.49782 2.73296 6.71716H5.85V11.5137C5.60445 11.3641 5.34205 11.2441 5.06829 11.1562L5.06829 11.1562ZM6.5 12.2333C6.4378 12.1196 6.36527 12.0119 6.28333 11.9116V6.50048C6.28333 6.44302 6.26051 6.38791 6.21987 6.34728C6.17924 6.30664 6.12413 6.28382 6.06667 6.28382H2.89148C2.93551 6.14131 2.97235 5.99669 3.00185 5.85048H6.06667C6.12413 5.85048 6.17924 5.82765 6.21987 5.78702C6.26051 5.74639 6.28333 5.69128 6.28333 5.63382V1.72429C6.35554 1.72751 6.42649 1.73382 6.5 1.73382C6.57351 1.73382 6.64446 1.72751 6.71667 1.72429V5.63382C6.71667 5.69128 6.73949 5.74639 6.78013 5.78702C6.82076 5.82765 6.87587 5.85048 6.93333 5.85048H9.99816C10.0277 5.99669 10.0645 6.14131 10.1085 6.28382H6.93333C6.87587 6.28382 6.82076 6.30664 6.78013 6.34728C6.73949 6.38791 6.71667 6.44302 6.71667 6.50048V11.9116C6.63473 12.0119 6.5622 12.1196 6.5 12.2333V12.2333ZM10.3907 10.3015L9.90318 9.81396C9.87948 9.79025 9.85059 9.77237 9.8188 9.76172C9.787 9.75108 9.75317 9.74795 9.71997 9.7526C9.68676 9.75724 9.65509 9.76953 9.62744 9.7885C9.59979 9.80746 9.57692 9.83258 9.56062 9.86188C9.07133 10.7426 8.492 10.9528 7.93171 11.1562C7.65795 11.2441 7.39555 11.3641 7.15 11.5137V6.71715H10.267C10.6076 7.49782 11.1404 8.17944 11.8157 8.69835L10.3907 10.3015Z" fill="black"/>
<path d="M12.2608 8.49195C10.0538 6.88695 9.72482 4.2222 11.4419 1.8613C11.4737 1.81757 11.488 1.7635 11.482 1.70975C11.476 1.65599 11.4501 1.60642 11.4094 1.57079L9.67605 0.0541262C9.63468 0.0179381 9.5811 -0.00117796 9.52616 0.00064752C9.47122 0.002473 9.41903 0.0251037 9.38015 0.0639586C9.01301 0.459728 8.56706 0.774223 8.07101 0.987191C7.57495 1.20016 7.0398 1.30688 6.5 1.30048C5.9602 1.30688 5.42505 1.20016 4.92899 0.987191C4.43294 0.774223 3.98699 0.459728 3.61985 0.0639586C3.58097 0.0250995 3.52878 0.00246534 3.47384 0.000638617C3.4189 -0.00118811 3.36532 0.0179291 3.32395 0.0541197L1.59062 1.57079C1.54992 1.60642 1.52402 1.65598 1.51801 1.70974C1.512 1.7635 1.52631 1.81756 1.55814 1.8613C3.27518 4.2222 2.94616 6.88695 0.739185 8.49195C0.714745 8.50974 0.694297 8.53246 0.679156 8.55862C0.664015 8.58479 0.654516 8.61384 0.651268 8.6439C0.64802 8.67396 0.651095 8.70436 0.660296 8.73316C0.669498 8.76196 0.684622 8.78852 0.704696 8.81113L2.43803 10.7611C2.45766 10.7832 2.48159 10.801 2.50835 10.8135C2.53511 10.826 2.56414 10.8329 2.59365 10.8337C2.62323 10.8352 2.65278 10.8303 2.6803 10.8193C2.70782 10.8084 2.73268 10.7917 2.75319 10.7703L3.20747 10.3162C3.74437 11.1367 4.36634 11.3624 4.92049 11.5635C5.52066 11.7813 5.99473 11.9533 6.29444 12.8524C6.30883 12.8955 6.33643 12.933 6.37332 12.9596C6.41021 12.9862 6.45453 13.0005 6.5 13.0005C6.54547 13.0005 6.58979 12.9862 6.62668 12.9596C6.66357 12.933 6.69117 12.8955 6.70556 12.8524C7.00527 11.9533 7.47933 11.7813 8.0795 11.5635C8.63365 11.3624 9.25562 11.1367 9.79252 10.3162L10.2468 10.7703C10.2674 10.7916 10.2922 10.8083 10.3197 10.8192C10.3473 10.8302 10.3768 10.8351 10.4064 10.8337C10.4359 10.8329 10.4649 10.826 10.4917 10.8135C10.5184 10.801 10.5424 10.7832 10.562 10.7611L12.2953 8.81113C12.3154 8.78852 12.3305 8.76196 12.3397 8.73316C12.3489 8.70436 12.352 8.67396 12.3487 8.6439C12.3455 8.61384 12.336 8.58479 12.3209 8.55862C12.3057 8.53246 12.2853 8.50975 12.2608 8.49195ZM9.54053 0.511364L10.977 1.76819C10.1522 2.96837 9.81262 4.23395 9.93234 5.41714H7.15V1.68464C8.05072 1.55572 8.88753 1.14501 9.54053 0.511364ZM2.023 1.76819L3.45947 0.511364C4.11247 1.14501 4.94928 1.55572 5.85 1.68464V5.41715H3.06767C3.18738 4.23396 2.84784 2.96838 2.023 1.76819ZM5.06829 11.1562C4.508 10.9528 3.92867 10.7426 3.43937 9.86187C3.42307 9.83258 3.4002 9.80746 3.37256 9.7885C3.34491 9.76954 3.31325 9.75724 3.28005 9.75259C3.27009 9.75121 3.26005 9.7505 3.25 9.75048C3.22155 9.75049 3.19338 9.7561 3.1671 9.76699C3.14081 9.77788 3.11693 9.79384 3.09682 9.81397L2.60932 10.3015L1.18426 8.69836C1.85963 8.17945 2.39245 7.49782 2.73296 6.71716H5.85V11.5137C5.60445 11.3641 5.34205 11.2441 5.06829 11.1562ZM6.5 12.2333C6.4378 12.1196 6.36527 12.0119 6.28333 11.9116V6.50048C6.28333 6.44302 6.26051 6.38791 6.21987 6.34728C6.17924 6.30664 6.12413 6.28382 6.06667 6.28382H2.89148C2.93551 6.14131 2.97234 5.99669 3.00185 5.85048H6.06667C6.12413 5.85048 6.17924 5.82766 6.21987 5.78702C6.26051 5.74639 6.28333 5.69128 6.28333 5.63382V1.72429C6.35554 1.72751 6.42649 1.73382 6.5 1.73382C6.57351 1.73382 6.64446 1.72751 6.71667 1.72429V5.63382C6.71667 5.69128 6.73949 5.74639 6.78013 5.78702C6.82076 5.82766 6.87587 5.85048 6.93333 5.85048H9.99815C10.0277 5.99669 10.0645 6.14131 10.1085 6.28382H6.93333C6.87587 6.28382 6.82076 6.30664 6.78013 6.34728C6.73949 6.38791 6.71667 6.44302 6.71667 6.50048V11.9116C6.63473 12.0119 6.5622 12.1196 6.5 12.2333ZM10.3907 10.3015L9.90318 9.81396C9.87947 9.79025 9.85059 9.77237 9.81879 9.76173C9.787 9.75108 9.75317 9.74795 9.71997 9.7526C9.68676 9.75724 9.65509 9.76953 9.62744 9.7885C9.59979 9.80746 9.57692 9.83258 9.56062 9.86189C9.07132 10.7426 8.49199 10.9528 7.93171 11.1562C7.65795 11.2441 7.39555 11.3641 7.15 11.5137V6.71715H10.267C10.6076 7.49782 11.1404 8.17944 11.8157 8.69835L10.3907 10.3015Z" fill="#F0EEE8"/>
</g>
<defs>
<clipPath id="clip0_60:2">
<rect width="13" height="13" fill="white"/>
</clipPath>
</defs>
</svg>
