<svg width="13" height="15" viewBox="0 0 13 15" fill="none" xmlns="http://www.w3.org/2000/svg">
<g clip-path="url(#clip0_69:48)">
<path d="M11.4833 8.5L6.5 14.25C11.05 16.5 12.7833 10.75 12.7833 7C12.7604 7.38911 12.6161 7.75547 12.3771 8.03125C12.1381 8.30703 11.8206 8.47356 11.4833 8.5Z" fill="#FF9F00"/>
<path d="M1.51667 8.5L6.50001 14.25C1.95001 16.5 0.216675 10.75 0.216675 7C0.239594 7.38911 0.383916 7.75547 0.622925 8.03125C0.861934 8.30703 1.17944 8.47356 1.51667 8.5Z" fill="#FF9F00"/>
<path d="M7.13671 13.5153L6.5 14.25C11.05 16.5 12.7833 10.75 12.7833 7C12.7817 7.16029 12.7538 7.31879 12.7013 7.46718C12.3319 10.8549 10.6807 14.7585 7.13671 13.5153Z" fill="#E28703"/>
<path d="M0.298759 7.46719C0.246194 7.3188 0.218346 7.1603 0.216675 7C0.216675 10.75 1.95001 16.5 6.50001 14.25L5.86331 13.5154C2.31932 14.7585 0.668152 10.8549 0.298759 7.46719Z" fill="#E28703"/>
<path d="M9.1602 11.2296L8.03297 12.4948L7.75865 11.76C7.75173 11.74 7.74047 11.7223 7.72593 11.7087C7.7114 11.6951 7.69409 11.6861 7.67566 11.6824C7.65712 11.6781 7.63796 11.6792 7.61986 11.6855C7.60177 11.6918 7.5853 11.7032 7.57193 11.7186L6.9795 12.381L6.59683 11.7367C6.58501 11.7203 6.57021 11.7071 6.55348 11.6981C6.53675 11.689 6.51849 11.6843 6.50001 11.6843C6.48153 11.6843 6.46328 11.689 6.44655 11.6981C6.42982 11.7071 6.41502 11.7203 6.4032 11.7367L6.02053 12.381L5.42809 11.7186C5.41493 11.7029 5.39848 11.6912 5.38032 11.6849C5.36217 11.6786 5.3429 11.6777 5.32437 11.6824C5.30609 11.6865 5.28897 11.6958 5.2745 11.7093C5.26004 11.7228 5.24866 11.7403 5.24137 11.76L4.97167 12.5L3.83983 11.2296C3.31655 8.544 4.12336 6.04203 5.99518 4.5L6.39628 5.39779C6.4062 5.41965 6.4211 5.43795 6.43939 5.45072C6.45768 5.46349 6.47864 5.47025 6.50002 5.47025C6.5214 5.47025 6.54236 5.46349 6.56065 5.45072C6.57894 5.43795 6.59384 5.41965 6.60376 5.39779L7.00485 4.5C8.87667 6.04203 9.68348 8.544 9.1602 11.2296Z" fill="#0288D0"/>
<path d="M6.78286 4.5L6.5 5.07767C7.26467 5.80704 7.83116 6.77503 8.13179 7.86596C8.43241 8.95689 8.45445 10.1246 8.19528 11.2296L7.62921 11.8093L7.9097 12.4948L9.14516 11.2296C9.71869 8.544 8.83441 6.04204 6.78286 4.5Z" fill="#0579AD"/>
<path d="M7.80005 12.5042L6.48928 14.25L5.18298 12.5101L5.41482 11.753L5.96543 12.4834C5.97606 12.4986 5.98973 12.5105 6.00526 12.5183C6.02079 12.5261 6.03772 12.5294 6.05459 12.5279C6.07158 12.5244 6.08772 12.5168 6.10195 12.5055C6.11617 12.4943 6.12815 12.4796 6.13707 12.4626L6.48929 11.7559L6.8415 12.4626C6.85043 12.4796 6.8624 12.4943 6.87663 12.5055C6.89085 12.5168 6.907 12.5244 6.92398 12.5279C6.94079 12.5287 6.95753 12.5251 6.97296 12.5174C6.9884 12.5097 7.00213 12.498 7.01314 12.4834L7.56599 11.75L7.80005 12.5042Z" fill="#E28703"/>
<path d="M6.49998 3.5L5.84998 4L6.49998 5.5L7.14998 4L6.49998 3.5Z" fill="#FF9F00"/>
<path d="M4.74592 9C4.73049 9.00005 4.71509 8.99817 4.70001 8.99439C4.64385 8.98038 4.5948 8.94121 4.56366 8.8855C4.53251 8.82978 4.52181 8.76208 4.53391 8.69727C4.56671 8.52271 4.60585 8.3479 4.65071 8.17749C4.65891 8.14596 4.67243 8.11662 4.69048 8.09113C4.70853 8.06565 4.73077 8.04452 4.75591 8.02897C4.78105 8.01343 4.80861 8.00376 4.837 8.00052C4.86539 7.99729 4.89405 8.00055 4.92134 8.01013C4.94863 8.01971 4.97402 8.0354 4.99604 8.05632C5.01807 8.07724 5.03629 8.10298 5.04968 8.13204C5.06307 8.16111 5.07135 8.19294 5.07405 8.22571C5.07675 8.25847 5.07382 8.29153 5.06542 8.32299C5.02395 8.48022 4.98777 8.64159 4.95752 8.80273C4.94707 8.85854 4.92037 8.90854 4.88188 8.94443C4.84339 8.98032 4.79541 8.99993 4.74592 9Z" fill="#059ADB"/>
<path d="M5.20779 7.50061C5.17348 7.50065 5.13967 7.49119 5.10919 7.47302C5.08385 7.45805 5.06133 7.43747 5.0429 7.41245C5.02446 7.38743 5.01049 7.35847 5.00176 7.32721C4.99304 7.29596 4.98974 7.26302 4.99205 7.23029C4.99436 7.19757 5.00224 7.16568 5.01524 7.13647C5.1998 6.72169 5.42422 6.3322 5.68428 5.97534C5.72126 5.92458 5.77421 5.89284 5.83147 5.88712C5.88873 5.8814 5.94561 5.90215 5.98961 5.94482C6.0336 5.98749 6.0611 6.04858 6.06606 6.11465C6.07103 6.18072 6.05304 6.24635 6.01605 6.29712C5.77691 6.62525 5.57051 6.98337 5.40076 7.36475C5.38256 7.40571 5.35491 7.44007 5.32086 7.46404C5.28681 7.48802 5.24768 7.50067 5.20779 7.50061Z" fill="#059ADB"/>
<path d="M12.7833 6.75008C12.7549 6.75008 12.7267 6.75654 12.7004 6.7691C12.6741 6.78166 12.6502 6.80007 12.6301 6.82329C12.61 6.8465 12.594 6.87407 12.5831 6.9044C12.5723 6.93474 12.5667 6.96725 12.5667 7.00008C12.5425 7.32224 12.4206 7.62422 12.2224 7.85287C12.0242 8.08152 11.7625 8.22218 11.4833 8.25008C11.4549 8.25008 11.4267 8.25655 11.4004 8.26912C11.3741 8.28169 11.3503 8.30011 11.3301 8.32334L9.42329 10.5236C9.56449 9.37116 9.43313 8.19615 9.04311 7.12282C8.65309 6.04948 8.01892 5.11772 7.20766 4.4261L7.34381 4.11191C7.36744 4.05741 7.373 3.99482 7.35944 3.93592C7.34588 3.87702 7.31414 3.82587 7.27018 3.79208L6.62018 3.29208C6.58458 3.26474 6.54277 3.25015 6.5 3.25015C6.45723 3.25015 6.41542 3.26474 6.37982 3.29208L5.72982 3.79208C5.68586 3.82587 5.65412 3.87702 5.64055 3.93592C5.627 3.99482 5.63255 4.05741 5.65619 4.11191L5.79234 4.4261C4.98108 5.11772 4.3469 6.04948 3.95689 7.12282C3.56687 8.19615 3.43551 9.37116 3.57671 10.5236L1.66985 8.32332C1.64974 8.3001 1.62586 8.28168 1.59958 8.26911C1.57329 8.25654 1.54512 8.25007 1.51667 8.25007C1.23747 8.22217 0.975751 8.08151 0.777588 7.85286C0.579425 7.62421 0.45752 7.32223 0.433333 7.00007C0.433333 6.93377 0.410506 6.87018 0.369873 6.8233C0.32924 6.77641 0.27413 6.75007 0.216667 6.75007C0.159203 6.75007 0.104093 6.77641 0.0634602 6.8233C0.0228273 6.87018 0 6.93377 0 7.00007C0 9.65731 0.81377 12.9576 2.63174 14.3409C3.20586 14.7822 3.88134 15.015 4.57116 15.0094C5.23571 14.9936 5.89108 14.8272 6.49999 14.5196C7.10888 14.8273 7.76428 14.9937 8.42884 15.0094C9.11866 15.015 9.79414 14.7822 10.3683 14.3409C12.1862 12.9576 13 9.65731 13 7.00008C13 6.96725 12.9944 6.93474 12.9835 6.9044C12.9726 6.87407 12.9567 6.8465 12.9366 6.82329C12.9164 6.80007 12.8925 6.78166 12.8663 6.7691C12.84 6.75654 12.8118 6.75008 12.7833 6.75008ZM6.5 3.80049L6.8707 4.08565L6.5 4.94112L6.1293 4.08566L6.5 3.80049ZM5.9893 4.88063L6.30618 5.61188C6.32419 5.65341 6.35185 5.68833 6.38608 5.71273C6.42031 5.73714 6.45976 5.75007 6.5 5.75007C6.54024 5.75007 6.57968 5.73714 6.61391 5.71273C6.64814 5.68833 6.67581 5.65341 6.69381 5.61188L7.01069 4.88063C8.65357 6.33901 9.35673 8.64727 8.89948 11.1279L7.97796 12.1912L7.78328 11.6536C7.76957 11.6158 7.74799 11.5824 7.72043 11.5564C7.69287 11.5304 7.6602 11.5127 7.62529 11.5047C7.59038 11.4968 7.55432 11.4989 7.52028 11.5109C7.48624 11.5228 7.45529 11.5443 7.43014 11.5733L6.96697 12.1077L6.68027 11.6114C6.65934 11.579 6.63214 11.5527 6.60084 11.5346C6.56954 11.5165 6.53501 11.507 6.49999 11.507C6.46498 11.507 6.43044 11.5165 6.39915 11.5346C6.36785 11.5527 6.34065 11.579 6.31972 11.6114L6.03302 12.1077L5.56986 11.5733C5.54461 11.5441 5.5135 11.5226 5.4793 11.5107C5.44509 11.4988 5.40886 11.4968 5.37384 11.5049C5.33881 11.5131 5.30607 11.5311 5.27855 11.5574C5.25102 11.5837 5.22956 11.6174 5.21608 11.6556L5.02543 12.1951L4.10052 11.1279C3.64326 8.64727 4.34643 6.33901 5.98931 4.88064L5.9893 4.88063ZM6.5 13.8966L5.35782 12.5787L5.4941 12.193L5.91348 12.6768C5.93615 12.703 5.96356 12.723 5.99374 12.7355C6.02392 12.7479 6.05612 12.7525 6.08802 12.7489C6.11992 12.7452 6.15072 12.7334 6.1782 12.7144C6.20568 12.6954 6.22916 12.6695 6.24693 12.6387L6.5 12.2008L6.75307 12.6388C6.77085 12.6695 6.79432 12.6954 6.8218 12.7144C6.84928 12.7335 6.88007 12.7452 6.91197 12.7489C6.91916 12.7496 6.92636 12.7501 6.93334 12.7501C6.9908 12.7501 7.0459 12.7237 7.08652 12.6768L7.50801 12.1905L7.64667 12.5735L6.5 13.8966ZM2.8704 13.9234C1.46631 12.8553 0.703532 10.4273 0.493636 8.23153C0.74332 8.52068 1.07141 8.70226 1.42314 8.74593L6.11427 14.1588C4.86612 14.691 3.7758 14.6124 2.8704 13.9234ZM10.1296 13.9234C9.22419 14.6126 8.13408 14.6912 6.88572 14.1588L11.5769 8.74593C11.9286 8.70225 12.2567 8.52068 12.5064 8.23153C12.2965 10.4273 11.5337 12.8553 10.1296 13.9234H10.1296Z" fill="#F0EEE8"/>
</g>
<defs>
<clipPath id="clip0_69:48">
<rect width="13" height="15" fill="white"/>
</clipPath>
</defs>
</svg>
