<svg width="13" height="13" viewBox="0 0 13 13" fill="none" xmlns="http://www.w3.org/2000/svg">
<g clip-path="url(#clip0_77:54)">
<path d="M0.216919 12.7833H12.7836L6.50025 1.95L0.216919 12.7833Z" fill="#3A3A3A"/>
<path d="M6.50029 12.675C8.47471 12.675 10.0753 11.0744 10.0753 9.09999C10.0753 7.12558 8.47471 5.52499 6.50029 5.52499C4.52587 5.52499 2.92529 7.12558 2.92529 9.09999C2.92529 11.0744 4.52587 12.675 6.50029 12.675Z" fill="#2D2D2D"/>
</g>
<path d="M12.9708 12.6746L6.68751 1.84132C6.6669 1.8105 6.63901 1.78525 6.60631 1.76778C6.57361 1.75032 6.53711 1.74118 6.50004 1.74118C6.46297 1.74118 6.42647 1.75032 6.39378 1.76778C6.36108 1.78525 6.33319 1.8105 6.31258 1.84132L0.0292417 12.6746C0.0101407 12.7076 5.50587e-05 12.745 2.24791e-07 12.783C-5.46091e-05 12.8211 0.00992334 12.8585 0.0289294 12.8915C0.0479355 12.9245 0.0752987 12.9519 0.108264 12.971C0.141229 12.99 0.178633 13.0001 0.216708 13.0001H12.7834C12.8215 13.0001 12.8589 12.99 12.8918 12.971C12.9248 12.9519 12.9522 12.9245 12.9712 12.8915C12.9902 12.8585 13.0001 12.8211 13.0001 12.783C13 12.745 12.9899 12.7076 12.9708 12.6746L12.9708 12.6746ZM6.28338 5.31938C5.63131 5.35543 4.99985 5.56055 4.45108 5.91458L6.28338 2.75548V5.31938ZM6.28338 5.75271V12.4474C5.43229 12.3934 4.63374 12.0173 4.05013 11.3954C3.46652 10.7736 3.14168 9.95286 3.14168 9.10007C3.14168 8.24728 3.46652 7.42651 4.05013 6.80469C4.63374 6.18288 5.43229 5.80672 6.28338 5.75271V5.75271ZM6.71671 5.75271C7.56779 5.80672 8.36634 6.18288 8.94995 6.80469C9.53356 7.42651 9.8584 8.24728 9.8584 9.10007C9.8584 9.95286 9.53356 10.7736 8.94995 11.3954C8.36634 12.0173 7.56779 12.3934 6.71671 12.4474V5.75271ZM6.71671 5.31938V2.75548L8.549 5.91458C8.00023 5.56055 7.36877 5.35543 6.71671 5.31938V5.31938ZM2.71841 8.90193C2.71497 8.96797 2.70837 9.03318 2.70837 9.10007C2.70937 9.83488 2.92365 10.5536 3.32522 11.169C3.72678 11.7843 4.29834 12.2699 4.97053 12.5667H0.592807L2.71841 8.90193ZM8.02955 12.5667C8.70174 12.2699 9.27331 11.7843 9.67487 11.169C10.0764 10.5536 10.2907 9.83488 10.2917 9.10007C10.2917 9.03318 10.2851 8.96797 10.2817 8.90193L12.4073 12.5667H8.02955Z" fill="#F0EEE8"/>
<defs>
<clipPath id="clip0_77:54">
<rect width="13" height="13" fill="white" transform="translate(0.000244141)"/>
</clipPath>
</defs>
</svg>
