<svg width="13" height="13" viewBox="0 0 13 13" fill="none" xmlns="http://www.w3.org/2000/svg">
<g clip-path="url(#clip0_78:203)">
<path d="M6.06661 8.01666L4.98328 6.93333L12.7833 0.21666L6.06661 8.01666Z" fill="#5D4038"/>
<path d="M9.54721 3.00364L5.61731 7.56708L6.06689 8.01666L12.7836 0.21666L9.54721 3.00364Z" fill="#49322E"/>
<path d="M0.164429 11.7L1.24776 12.7833L1.76942 12.2616C1.85416 12.1758 1.92427 12.0766 1.97698 11.9681C3.28254 9.31689 5.04271 9.22444 5.89794 8.58893C5.94685 8.55157 5.98717 8.50415 6.01617 8.44986C6.04518 8.39558 6.06219 8.3357 6.06607 8.27428C6.06994 8.21286 6.06058 8.15132 6.03862 8.09382C6.01666 8.03632 5.98261 7.98421 5.93878 7.94101L5.03277 7.03499C4.77154 6.77376 4.50384 6.77131 4.33266 6.93374C3.69654 7.5373 2.72654 9.25743 1.50964 10.2678C1.31622 10.4378 1.08932 10.5652 0.843577 10.642C0.376054 10.7731 0.164429 11.3807 0.164429 11.7Z" fill="#5D4038"/>
<path d="M5.93881 7.94101L5.50548 7.50768C5.54931 7.55088 5.58336 7.60299 5.60532 7.66049C5.62728 7.71798 5.63664 7.77952 5.63277 7.84095C5.62889 7.90237 5.61188 7.96225 5.58288 8.01653C5.55387 8.07082 5.51355 8.11824 5.46464 8.1556C4.6094 8.79111 2.84923 8.88356 1.54367 11.5348C1.49097 11.6433 1.42085 11.7424 1.33611 11.8283L0.814453 12.35L1.24779 12.7833L1.76945 12.2616C1.85419 12.1758 1.9243 12.0766 1.977 11.9681C3.28257 9.31689 5.04274 9.22444 5.89798 8.58893C5.94689 8.55157 5.98721 8.50415 6.01621 8.44986C6.04521 8.39558 6.06223 8.3357 6.0661 8.27428C6.06997 8.21285 6.06061 8.15131 6.03865 8.09382C6.01669 8.03632 5.98264 7.98421 5.93881 7.94101V7.94101Z" fill="#49322E"/>
<path d="M12.9365 0.0634813C12.8979 0.0247611 12.8461 0.00210065 12.7914 5.93574e-05C12.7368 -0.00198193 12.6834 0.0167474 12.642 0.0524789L4.9511 6.67519C4.83598 6.61622 4.70544 6.59431 4.57737 6.61246C4.44931 6.6306 4.32999 6.68792 4.23579 6.77655C3.90277 7.12995 3.59732 7.50835 3.32215 7.90845C2.79846 8.6178 2.14699 9.50055 1.42357 10.1011C1.25367 10.2518 1.05398 10.365 0.837466 10.4334C0.266179 10.5936 0 11.2839 0 11.7C1.53646e-05 11.7575 0.0228502 11.8126 0.0634833 11.8532L1.14682 12.9365C1.16693 12.9566 1.19081 12.9726 1.2171 12.9835C1.24338 12.9944 1.27155 13 1.30001 13C1.32846 13 1.35663 12.9944 1.38292 12.9835C1.4092 12.9726 1.43308 12.9566 1.4532 12.9365L1.97476 12.4149C2.07639 12.3123 2.16045 12.1937 2.22359 12.0638C3.15986 10.1628 4.30498 9.64041 5.22518 9.22072C5.52494 9.09799 5.8112 8.94454 6.07936 8.76284C6.15274 8.70812 6.21347 8.63823 6.2574 8.55791C6.30132 8.4776 6.32742 8.38876 6.3339 8.29745C6.33841 8.22058 6.32923 8.14352 6.30676 8.06986L12.9475 0.358014C12.9832 0.316597 13.0019 0.263216 12.9999 0.208585C12.9978 0.153955 12.9752 0.102119 12.9365 0.0634813V0.0634813ZM7.32821 5.2H8.20616L6.05476 7.69847L5.30163 6.94516L7.32821 5.2ZM1.83468 11.8723C1.79261 11.9597 1.73642 12.0395 1.66837 12.1085L1.3 12.477L0.438834 11.6157C0.470571 11.3498 0.642806 10.938 0.954474 10.8507C1.22968 10.7662 1.48388 10.6244 1.70033 10.4346C2.024 10.1592 2.32487 9.85799 2.6 9.53404V10.6348C2.30333 11.0201 2.04688 11.4348 1.83468 11.8723V11.8723ZM5.8208 8.415C5.57663 8.57758 5.31685 8.71541 5.04532 8.82643C4.29545 9.12819 3.61193 9.57387 3.03333 10.1383V9.00945C3.26183 8.71914 3.47517 8.43061 3.67064 8.16575C3.93161 7.78672 4.22023 7.42749 4.53413 7.09098C4.67314 6.95916 4.85869 7.11511 4.93191 7.18821L5.83772 8.09434C5.86009 8.11666 5.87738 8.14355 5.8884 8.17316C5.89943 8.20278 5.90394 8.23442 5.90162 8.26594C5.89977 8.29516 5.89158 8.32362 5.87762 8.34936C5.86367 8.3751 5.84428 8.39749 5.8208 8.41499L5.8208 8.415ZM8.5793 4.76667H7.83143L10.7246 2.27532L8.5793 4.76667Z" fill="#F0EEE8"/>
</g>
<defs>
<clipPath id="clip0_78:203">
<rect width="13" height="13" fill="white"/>
</clipPath>
</defs>
</svg>
