<svg width="13" height="13" viewBox="0 0 13 13" fill="none" xmlns="http://www.w3.org/2000/svg">
<g clip-path="url(#clip0_77:56)">
<path d="M6.50005 12.7833C7.577 12.7833 8.45005 11.9103 8.45005 10.8333C8.45005 9.75638 7.577 8.88333 6.50005 8.88333C5.42309 8.88333 4.55005 9.75638 4.55005 10.8333C4.55005 11.9103 5.42309 12.7833 6.50005 12.7833Z" fill="#FF9F00"/>
<path d="M5.7651 12.6389C5.4485 12.32 5.25186 11.9014 5.20847 11.4541C5.16507 11.0067 5.27759 10.5581 5.52698 10.1843C5.77636 9.81037 6.14728 9.53415 6.57695 9.40236C7.00662 9.27056 7.46863 9.2913 7.88477 9.46105C7.68126 9.25556 7.43458 9.09793 7.16262 8.99957C6.89065 8.90121 6.60021 8.86459 6.31234 8.89236C6.02447 8.92012 5.74639 9.01159 5.49824 9.16012C5.25009 9.30866 5.03809 9.51054 4.87762 9.75113C4.71714 9.99173 4.6122 10.265 4.5704 10.5512C4.5286 10.8374 4.55099 11.1292 4.63595 11.4057C4.7209 11.6821 4.8663 11.9362 5.0616 12.1495C5.25689 12.3628 5.4972 12.53 5.7651 12.6389V12.6389Z" fill="#FFB15C"/>
<path d="M7.2349 9.02771C7.5515 9.34669 7.74814 9.76528 7.79153 10.2126C7.83493 10.6599 7.72241 11.1085 7.47302 11.4824C7.22364 11.8563 6.85272 12.1325 6.42305 12.2643C5.99338 12.3961 5.53137 12.3754 5.11523 12.2056C5.31874 12.4111 5.56542 12.5687 5.83738 12.6671C6.10935 12.7654 6.39979 12.8021 6.68766 12.7743C6.97553 12.7465 7.25362 12.6551 7.50176 12.5065C7.74991 12.358 7.96191 12.1561 8.12239 11.9155C8.28286 11.6749 8.3878 11.4016 8.4296 11.1155C8.4714 10.8293 8.44901 10.5374 8.36405 10.261C8.2791 9.98453 8.1337 9.73045 7.9384 9.51714C7.74311 9.30384 7.5028 9.13666 7.2349 9.02771Z" fill="#E28703"/>
<path d="M0.43335 0.21666C3.25002 1.73333 5.63335 2.59999 5.63335 9.09999L2.81668 6.49999C2.81668 4.98333 1.95002 2.16666 0.43335 0.21666Z" fill="#E0E0E0"/>
<path d="M1.48136 0.894919C2.6141 2.73862 3.25001 4.98593 3.25001 6.28333L5.40104 8.2689C5.41031 8.53641 5.41667 8.81071 5.41667 9.09999L2.60001 6.49999C2.60001 4.98333 1.73334 2.16666 0.216675 0.21666C0.650974 0.450504 1.07482 0.668943 1.48136 0.894919Z" fill="#C9C8C7"/>
<path d="M13 0.21666C10.1834 1.73333 7.80005 2.59999 7.80005 9.09999L10.6167 6.49999C10.6167 4.98333 11.4834 2.16666 13 0.21666Z" fill="#E0E0E0"/>
<path d="M11.5187 0.894919C10.3859 2.73862 9.75004 4.98593 9.75004 6.28333L7.599 8.2689C7.58974 8.53641 7.58337 8.81071 7.58337 9.09999L10.4 6.49999C10.4 4.98333 11.2667 2.16666 12.7834 0.21666C12.3491 0.450504 11.9252 0.668943 11.5187 0.894919Z" fill="#C9C8C7"/>
<path d="M12.9489 0.0771009C12.9168 0.0391246 12.8727 0.0133366 12.8239 0.00407024C12.7751 -0.00519608 12.7245 0.00262413 12.6808 0.0262167C12.5194 0.113074 12.3595 0.198239 12.2011 0.28171C9.64246 1.63753 7.42956 2.81457 7.3696 8.8505C7.09569 8.72947 6.79954 8.66696 6.50008 8.66696C6.20063 8.66696 5.90448 8.72948 5.63057 8.85051C5.57062 2.81458 3.35772 1.63753 0.79904 0.281706C0.640777 0.197918 0.480888 0.112755 0.319373 0.0262167C0.275627 0.00266506 0.225114 -0.00513035 0.176303 0.00413755C0.127492 0.0134055 0.0833515 0.0391731 0.0512825 0.0771201C0.0192135 0.115067 0.001166 0.162886 0.000165979 0.212559C-0.000834047 0.262231 0.0152743 0.310738 0.0457899 0.349945C1.48967 2.20642 2.38342 4.98797 2.38342 6.50029C2.3834 6.5302 2.38958 6.55979 2.40156 6.58719C2.41354 6.61459 2.43107 6.63922 2.45303 6.65951L5.14575 9.1451C4.79537 9.42568 4.54079 9.80816 4.41719 10.2397C4.29358 10.6712 4.30705 11.1305 4.45574 11.554C4.60442 11.9775 4.88098 12.3444 5.2472 12.604C5.61342 12.8636 6.05121 13.003 6.50009 13.003C6.94896 13.003 7.38676 12.8636 7.75298 12.604C8.11919 12.3444 8.39575 11.9775 8.54444 11.554C8.69312 11.1305 8.70659 10.6712 8.58299 10.2397C8.45938 9.80816 8.2048 9.42568 7.85443 9.1451L10.5471 6.65951C10.5691 6.63922 10.5866 6.61459 10.5986 6.58719C10.6106 6.55979 10.6168 6.5302 10.6168 6.50029C10.6168 4.98796 11.5105 2.20642 12.9544 0.349945C12.9849 0.310742 13.001 0.262228 13 0.212547C12.999 0.162866 12.981 0.115042 12.9489 0.0771009V0.0771009ZM0.915841 0.834481C3.26299 2.08793 5.08879 3.28224 5.19522 8.60094L2.8157 6.40445C2.78544 4.97421 2.08952 2.67192 0.915841 0.834481ZM7.851 9.75029H5.14917C5.31112 9.5475 5.51665 9.38377 5.75051 9.27125C5.98438 9.15872 6.24057 9.10029 6.5001 9.10029C6.75962 9.10029 7.01582 9.15872 7.24968 9.27125C7.48354 9.38377 7.68907 9.5475 7.85102 9.75029H7.851ZM4.78179 11.0503H8.21837C8.1999 11.199 8.16206 11.3447 8.10581 11.4836H4.89437C4.83812 11.3447 4.80027 11.199 4.7818 11.0503H4.78179ZM4.78179 10.617C4.80026 10.4682 4.8381 10.3225 4.89436 10.1836H8.1058C8.16206 10.3225 8.1999 10.4682 8.21837 10.617H4.78179ZM6.50008 12.567C6.24057 12.5669 5.9844 12.5084 5.75055 12.3959C5.5167 12.2834 5.31117 12.1197 5.14916 11.917H7.851C7.689 12.1197 7.48346 12.2834 7.24961 12.3959C7.01576 12.5084 6.7596 12.5669 6.50009 12.567H6.50008ZM10.1845 6.40445L7.80495 8.60095C7.91138 3.28224 9.73719 2.08793 12.0843 0.834483C10.9107 2.67192 10.2147 4.97421 10.1845 6.40445Z" fill="#F0EEE8"/>
</g>
<defs>
<clipPath id="clip0_77:56">
<rect width="13" height="13" fill="white"/>
</clipPath>
</defs>
</svg>
