<svg width="13" height="13" viewBox="0 0 13 13" fill="none" xmlns="http://www.w3.org/2000/svg">
<g clip-path="url(#clip0_77:2)">
<path d="M12.7833 9.74999L9.56035 12.7833L8.91577 7.14999L12.7833 9.74999Z" fill="#AF1E1E"/>
<path d="M8.91577 7.14999L8.91642 7.15519L8.98835 7.19874L8.91577 7.14999Z" fill="#9E1D1D"/>
<path d="M12.7833 9.74999L11.7 9.09999L9.53333 12.1333L9.56041 12.7833L12.7833 9.74999Z" fill="#9E1D1D"/>
<path d="M5.20001 6.71666L1.95066 12.7833L0.216675 9.10151L5.20001 6.71666Z" fill="#AF1E1E"/>
<path d="M0.216675 9.10152L1.95066 12.7833L2.16667 12.35L1.09049 8.68335L0.216675 9.10152Z" fill="#BA2A2A"/>
<path d="M7.80002 0.21666L7.59375 4.16433L5.14888 6.61938L0.43335 8.88333L7.80002 0.21666Z" fill="#D32F2E"/>
<path d="M7.80002 0.21666L0.43335 8.88333L1.84255 8.20668L7.74542 1.26229L7.80002 0.21666Z" fill="#D34444"/>
<path d="M9.53341 12.7833H2.02808L5.28263 6.67875L7.61461 4.33333L8.87886 7.09171L9.53341 12.7833Z" fill="#D32F2E"/>
<path d="M12.7833 9.74999L8.91931 7.18072L7.58984 4.3072L7.80463 0.21666C9.982 1.23985 12.6884 5.87806 12.7833 9.74999Z" fill="#D32F2E"/>
<path d="M12.7833 9.74999C12.6889 5.89879 10.0111 1.29097 7.83984 0.234879C9.54463 2.14238 11.628 6.16553 11.7 9.09999L12.7833 9.74999Z" fill="#BA2A2A"/>
<path d="M7.88031 0.0161568C7.83822 -0.000557211 7.79197 -0.0037098 7.748 0.00713934C7.70404 0.0179885 7.66456 0.0422976 7.63508 0.0766718L0.0517464 8.96001C0.0247014 8.99173 0.00736562 9.03057 0.00181226 9.07188C-0.0037411 9.11319 0.00272301 9.15523 0.0204316 9.19297L1.75376 12.8763C1.77128 12.9135 1.79903 12.945 1.83376 12.967C1.86849 12.989 1.90878 13.0007 1.94991 13.0007H9.53324C9.58813 13.0007 9.64097 12.9799 9.68114 12.9425L12.9311 9.90919C12.9528 9.88889 12.9701 9.86434 12.982 9.83708C12.9938 9.80982 12.9999 9.78043 12.9999 9.75071C12.9999 5.79147 10.1157 0.910331 7.88031 0.0161568ZM12.5556 9.33854L9.05439 7.00441L7.80245 4.29193L7.99932 0.552597C9.99133 1.63098 12.3797 5.78091 12.5556 9.33854ZM7.37115 4.23976L5.07313 6.53778L1.04455 8.4645L7.54987 0.843958L7.37115 4.23976ZM5.37574 6.84793L7.5167 4.70697L8.67208 7.20996L9.29021 12.5674H2.3119L5.37574 6.84793ZM9.152 7.59029L12.4351 9.77905L9.69921 12.3327L9.152 7.59029ZM0.504337 9.20332L4.69624 7.1985L1.96239 12.3017L0.504337 9.20332Z" fill="#F0EEE8"/>
</g>
<defs>
<clipPath id="clip0_77:2">
<rect width="13" height="13" fill="white"/>
</clipPath>
</defs>
</svg>
