<svg width="13" height="13" viewBox="0 0 13 13" fill="none" xmlns="http://www.w3.org/2000/svg">
<g clip-path="url(#clip0_81:326)">
<path d="M10.1833 3.76061V12.7833H8.62069V4.58683C8.62077 4.57138 8.61741 4.5561 8.61084 4.54211C8.60428 4.52813 8.59468 4.51578 8.58275 4.50596L6.57365 2.75736C6.55332 2.7394 6.52712 2.72948 6.49998 2.72948C6.47285 2.72948 6.44665 2.7394 6.42632 2.75736L4.41724 4.50595C4.4053 4.51576 4.3957 4.52811 4.38913 4.5421C4.38256 4.55609 4.3792 4.57137 4.37928 4.58682V12.7833H2.81665V3.76061L6.49998 0.366165L10.1833 3.76061Z" fill="#C98831"/>
<path d="M8.45005 4.49518V12.7833H4.55005V4.49518L6.50005 2.81667L8.45005 4.49518Z" fill="#2CB302"/>
<path d="M7.58325 3.7492V12.7833H8.44992V4.49518L7.58325 3.7492Z" fill="#2C860D"/>
<path d="M3.25 1.06232V1.73333H4.11667V1.06232L3.68333 0.216667L3.25 1.06232Z" fill="#C98831"/>
<path d="M3.25 1.7316V3.25L4.11667 2.38896V1.7316H3.25Z" fill="#AA650B"/>
<path d="M9.74997 1.06232V1.73333H8.8833V1.06232L9.31663 0.216667L9.74997 1.06232Z" fill="#C98831"/>
<path d="M9.74997 1.7316V3.25L8.8833 2.38896V1.7316H9.74997Z" fill="#AA650B"/>
<path d="M9.31668 4.11667V12.7833H8.62072V4.58684C8.6208 4.57139 8.61744 4.55611 8.61087 4.54212C8.60431 4.52813 8.59471 4.51578 8.58278 4.50597L6.57368 2.75737C6.55335 2.7394 6.52715 2.72949 6.50002 2.72949C6.47288 2.72949 6.44668 2.7394 6.42635 2.75737L4.41727 4.50596C4.40533 4.51577 4.39573 4.52812 4.38916 4.54211C4.3826 4.5561 4.37923 4.57137 4.37931 4.58683V12.7833H3.68335V4.11667L6.50002 1.51667L9.31668 4.11667Z" fill="#AA650B"/>
<path d="M5.4164 7.36666C5.3772 7.36662 5.33875 7.35595 5.30514 7.33578C5.27153 7.31562 5.24402 7.28671 5.22554 7.25214C5.20706 7.21757 5.1983 7.17863 5.20021 7.13948C5.20211 7.10033 5.2146 7.06243 5.23634 7.02981L5.66967 6.37981C5.68536 6.35591 5.70561 6.33535 5.72928 6.31932C5.75294 6.30328 5.77955 6.29209 5.80756 6.28638C5.83557 6.28067 5.86443 6.28056 5.89248 6.28606C5.92054 6.29155 5.94722 6.30255 5.97101 6.3184C5.99479 6.33426 6.01521 6.35467 6.03107 6.37845C6.04693 6.40223 6.05793 6.42891 6.06344 6.45697C6.06894 6.48502 6.06884 6.51388 6.06314 6.54189C6.05744 6.5699 6.04625 6.59651 6.03022 6.62018L5.59688 7.27018C5.57709 7.2999 5.55025 7.32426 5.51876 7.3411C5.48727 7.35793 5.45211 7.36671 5.4164 7.36666V7.36666Z" fill="#2C860D"/>
<path d="M5.63315 8.44999C5.59337 8.44993 5.55438 8.43892 5.52044 8.41817C5.4865 8.39742 5.45893 8.36773 5.44074 8.33236C5.42255 8.29699 5.41444 8.25729 5.41731 8.21762C5.42018 8.17794 5.43391 8.13982 5.457 8.10743L6.54033 6.59077C6.57372 6.54399 6.62432 6.5124 6.68101 6.50293C6.73769 6.49346 6.79581 6.5069 6.84259 6.54029C6.88936 6.57368 6.92096 6.62429 6.93043 6.68097C6.93989 6.73766 6.92645 6.79578 6.89306 6.84255L5.80973 8.35922C5.78967 8.38734 5.76318 8.41025 5.73246 8.42604C5.70174 8.44183 5.66769 8.45005 5.63315 8.44999V8.44999Z" fill="#2C860D"/>
<path d="M10.332 3.52623L9.96676 3.1825V1.08407C9.96677 1.05044 9.95894 1.01726 9.94391 0.987166L9.51058 0.1205C9.49058 0.0869296 9.4622 0.0591302 9.42822 0.0398244C9.39425 0.0205187 9.35584 0.0103688 9.31676 0.0103688C9.27769 0.0103688 9.23928 0.0205187 9.2053 0.0398244C9.17133 0.0591302 9.14295 0.0869296 9.12295 0.1205L8.68962 0.987166C8.67458 1.01726 8.66676 1.05044 8.66676 1.08407V1.95897L6.64863 0.0595625C6.60837 0.0218389 6.55527 0.000846863 6.5001 0.000846863C6.44493 0.000846863 6.39182 0.0218389 6.35156 0.0595625L4.33343 1.95898V1.08408C4.33343 1.05044 4.32561 1.01726 4.31058 0.987171L3.87725 0.120504C3.85724 0.086934 3.82887 0.0591345 3.79489 0.0398288C3.76092 0.0205231 3.72251 0.0103731 3.68343 0.0103731C3.64435 0.0103731 3.60595 0.0205231 3.57197 0.0398288C3.538 0.0591345 3.50962 0.086934 3.48962 0.120504L3.05628 0.987171C3.04125 1.01726 3.03343 1.05044 3.03343 1.08407V3.1825L2.66823 3.52623C2.64673 3.54652 2.62959 3.57098 2.61788 3.59812C2.60616 3.62526 2.60011 3.65451 2.6001 3.68407V12.7841C2.60009 12.8125 2.60569 12.8407 2.61658 12.867C2.62746 12.8933 2.64342 12.9172 2.66354 12.9373C2.68366 12.9574 2.70755 12.9734 2.73384 12.9843C2.76013 12.9951 2.78831 13.0007 2.81676 13.0007H10.1834C10.2119 13.0007 10.2401 12.9951 10.2664 12.9843C10.2926 12.9734 10.3165 12.9574 10.3367 12.9373C10.3568 12.9172 10.3727 12.8933 10.3836 12.867C10.3945 12.8407 10.4001 12.8125 10.4001 12.7841V3.68407C10.4001 3.65451 10.394 3.62526 10.3823 3.59812C10.3706 3.57098 10.3535 3.54652 10.332 3.52623ZM9.31676 0.701944L9.53343 1.13528V1.51741H9.1001V1.13528L9.31676 0.701944ZM9.1001 1.95074H9.53343V2.77467L9.1001 2.36683V1.95074ZM3.68343 0.701944L3.9001 1.13528V1.51741H3.46676V1.13528L3.68343 0.701944ZM3.46676 1.95074H3.9001V2.36683L3.46676 2.77467V1.95074ZM9.1001 12.5674H8.66676V4.55074C8.66676 4.52016 8.66029 4.48992 8.64776 4.46203C8.63523 4.43413 8.61694 4.4092 8.59408 4.38888L6.64408 2.65554C6.60446 2.62018 6.55321 2.60064 6.5001 2.60064C6.44699 2.60064 6.39574 2.62018 6.35611 2.65554L4.40611 4.38888C4.38326 4.4092 4.36496 4.43413 4.35244 4.46203C4.33991 4.48992 4.33343 4.52016 4.33343 4.55074V12.5674H3.9001V4.2122L6.5001 1.81236L9.1001 4.2122V12.5674ZM8.23343 5.41741H7.60942L8.23343 4.97168V5.41741ZM7.1501 5.21313V3.68508L8.10321 4.53233L7.1501 5.21313ZM6.71676 5.41741H6.28343V3.29988L6.5001 3.10728L6.71676 3.29988V5.41741ZM4.76676 4.97168L5.39078 5.41741H4.76676V4.97168ZM5.8501 5.21313L4.89698 4.53233L5.8501 3.68508V5.21313ZM4.76676 5.85074H8.23343V12.5674H4.76676V5.85074ZM9.96676 12.5674H9.53343V4.11741C9.53345 4.08751 9.52726 4.05793 9.51526 4.03054C9.50326 4.00315 9.48571 3.97855 9.46371 3.95829L6.64705 1.35829C6.60702 1.32136 6.55456 1.30085 6.5001 1.30085C6.44563 1.30085 6.39317 1.32136 6.35315 1.35829L3.53648 3.95829C3.51449 3.97855 3.49693 4.00315 3.48493 4.03054C3.47293 4.05793 3.46675 4.08751 3.46676 4.11741V12.5674H3.03343V3.7776L6.5001 0.5149L9.96676 3.7776V12.5674Z" fill="#F0EEE8"/>
</g>
<defs>
<clipPath id="clip0_81:326">
<rect width="13" height="13" fill="white"/>
</clipPath>
</defs>
</svg>
