<svg width="13" height="13" viewBox="0 0 13 13" fill="none" xmlns="http://www.w3.org/2000/svg">
<g clip-path="url(#clip0_27:97)">
<path d="M10.413 6.50002H6.93334V11.9839C6.7361 12.2182 6.58866 12.4902 6.50001 12.7834C6.41135 12.4902 6.26391 12.2182 6.06667 11.9839V6.50002H2.58701C2.69557 6.22058 2.7726 5.92989 2.81667 5.63336H6.06667V1.49719C6.21617 1.51019 6.36134 1.51669 6.50001 1.51669C6.63867 1.51669 6.78384 1.51019 6.93334 1.49719V5.63336H10.1833C10.2274 5.92989 10.3044 6.22058 10.413 6.50002Z" fill="#F0EEE8"/>
<path d="M6.06667 1.49717V5.63334H2.81667C3.01817 4.36151 2.6455 2.98784 1.73334 1.73334L3.46667 0.216675C4.14856 0.94579 5.07302 1.40109 6.06667 1.49717Z" fill="#BA2A2A"/>
<path d="M6.06667 6.5V11.9838C5.31267 11.128 4.13617 11.5613 3.25 9.96667L2.6 10.6167L0.866669 8.66667C1.63944 8.12798 2.2375 7.37475 2.587 6.5H6.06667Z" fill="#FBC12E"/>
<path d="M6.50001 12.7833C6.58867 12.4902 6.73611 12.2181 6.93335 11.9838V10.9778C6.76435 11.1685 6.34654 11.5104 6.22015 11.9438C6.10099 11.5884 6.38085 12.428 6.50001 12.7833Z" fill="#F0EEE8"/>
<path d="M10.1833 5.63334H6.93335V1.49717C7.927 1.40109 8.85146 0.94579 9.53335 0.216675L11.2667 1.73334C10.3545 2.98784 9.98185 4.36151 10.1833 5.63334Z" fill="#FBC12E"/>
<path d="M6.06667 1.49717V5.63334H2.81667C3.01817 4.36151 2.6455 2.98784 1.73334 1.73334L3.46667 0.216675C4.14856 0.94579 5.07302 1.40109 6.06667 1.49717Z" fill="#BA2A2A"/>
<path d="M11.4833 1.73334L9.75001 0.216675C9.61041 0.356263 9.46301 0.487834 9.30853 0.610759L10.6843 1.81459C9.79151 3.04251 9.41705 4.38435 9.59048 5.63334H10.4C10.1985 4.36151 10.5712 2.98784 11.4833 1.73334Z" fill="#B38826"/>
<path d="M12.1333 8.66667L10.4 10.6167L9.75002 9.96667C8.86385 11.5613 7.68735 11.128 6.93335 11.9838V6.5H10.413C10.7625 7.37475 11.3606 8.12798 12.1333 8.66667Z" fill="#BA2A2A"/>
<path d="M11.8909 8.47784C11.8211 8.42023 11.753 8.36179 11.6867 8.30252C11.1235 7.81276 10.6866 7.19446 10.413 6.5L9.61851 6.59028C9.96267 7.45166 10.5486 8.19513 11.3057 8.7311L10.4 9.74995L9.83291 9.24475C9.81084 9.22493 9.78491 9.20988 9.75675 9.20055C9.72859 9.19121 9.6988 9.1878 9.66926 9.19051C9.63971 9.19323 9.61105 9.20202 9.58506 9.21634C9.55908 9.23065 9.53633 9.25018 9.51824 9.27369C8.20627 11.0229 7.73231 10.3458 6.93335 11.1171V11.9838C7.68735 11.128 8.86385 11.5613 9.75002 9.96667L10.0219 10.2385L10.4 10.6167L12.1333 8.66667C12.0492 8.60535 11.9697 8.54175 11.8909 8.47784Z" fill="#881E1E"/>
<path d="M10.1833 5.6333H9.38434C9.42841 5.92983 9.50544 6.22052 9.614 6.49997H10.413C10.3044 6.22052 10.2274 5.92983 10.1833 5.6333Z" fill="#F0EEE8"/>
<path d="M6.06668 1.49719V1.50069C6.07825 1.49969 6.08891 1.5 6.10052 1.49894C6.0889 1.49786 6.07836 1.49836 6.06668 1.49719Z" fill="#F57B02"/>
<path d="M6.13435 1.49719C6.12268 1.49837 6.11215 1.49786 6.10052 1.49894C6.11214 1.50001 6.12278 1.4997 6.13435 1.50069V1.49719Z" fill="#F57B02"/>
<path d="M6.06667 1.49717V5.63334H2.81667C3.01817 4.36151 2.6455 2.98784 1.73334 1.73334L3.46667 0.216675C4.14856 0.94579 5.07302 1.40109 6.06667 1.49717Z" fill="#BA2A2A"/>
<path d="M12.2608 8.49192C10.0539 6.88692 9.72483 4.22217 11.4419 1.86127C11.4737 1.81753 11.488 1.76347 11.482 1.70972C11.476 1.65596 11.4501 1.60639 11.4094 1.57076L9.67606 0.0540957C9.63469 0.0179076 9.58111 -0.00120848 9.52617 0.000617003C9.47124 0.00244249 9.41904 0.0250732 9.38016 0.063928C9.01303 0.459698 8.56707 0.774192 8.07102 0.987161C7.57497 1.20013 7.03981 1.30685 6.50001 1.30045C5.96021 1.30685 5.42506 1.20013 4.92901 0.987161C4.43295 0.774192 3.987 0.459698 3.61986 0.063928C3.58098 0.025069 3.52879 0.00243483 3.47385 0.000608099C3.41892 -0.00121863 3.36534 0.0178986 3.32396 0.0540892L1.59063 1.57076C1.54993 1.60639 1.52403 1.65595 1.51802 1.70971C1.51201 1.76347 1.52632 1.81753 1.55815 1.86127C3.27519 4.22217 2.94617 6.88692 0.739197 8.49191C0.714756 8.50971 0.694309 8.53242 0.679168 8.55859C0.664027 8.58476 0.654527 8.61381 0.651279 8.64387C0.648031 8.67393 0.651107 8.70433 0.660308 8.73313C0.669509 8.76193 0.684633 8.78849 0.704708 8.8111L2.43804 10.7611C2.45767 10.7832 2.4816 10.801 2.50836 10.8135C2.53512 10.8259 2.56415 10.8328 2.59366 10.8337C2.62324 10.8351 2.65279 10.8302 2.68031 10.8193C2.70783 10.8084 2.73269 10.7917 2.7532 10.7703L3.20748 10.3161C3.74438 11.1367 4.36635 11.3623 4.9205 11.5634C5.52067 11.7813 5.99474 11.9533 6.29445 12.8523C6.30885 12.8955 6.33644 12.933 6.37333 12.9596C6.41022 12.9861 6.45454 13.0004 6.50001 13.0004C6.54548 13.0004 6.5898 12.9861 6.62669 12.9596C6.66358 12.933 6.69118 12.8955 6.70557 12.8523C7.00528 11.9533 7.47935 11.7813 8.07951 11.5634C8.63366 11.3623 9.25563 11.1367 9.79253 10.3161L10.2468 10.7703C10.2674 10.7916 10.2922 10.8083 10.3198 10.8192C10.3473 10.8301 10.3768 10.8351 10.4064 10.8337C10.4359 10.8328 10.4649 10.8259 10.4917 10.8135C10.5184 10.801 10.5424 10.7832 10.562 10.7611L12.2953 8.8111C12.3154 8.78849 12.3305 8.76193 12.3397 8.73313C12.3489 8.70433 12.352 8.67393 12.3488 8.64387C12.3455 8.61381 12.336 8.58476 12.3209 8.55859C12.3057 8.53242 12.2853 8.50971 12.2608 8.49191L12.2608 8.49192ZM9.54054 0.511334L10.977 1.76816C10.1522 2.96834 9.81263 4.23392 9.93235 5.41711H7.15001V1.68461C8.05073 1.55569 8.88754 1.14498 9.54054 0.511334ZM2.02301 1.76816L3.45949 0.511334C4.11249 1.14498 4.94929 1.55569 5.85001 1.68461V5.41712H3.06768C3.1874 4.23393 2.84785 2.96835 2.02301 1.76816ZM5.0683 11.1561C4.50801 10.9528 3.92868 10.7426 3.43939 9.86184C3.42309 9.83255 3.40022 9.80743 3.37257 9.78847C3.34492 9.76951 3.31326 9.75721 3.28006 9.75256C3.2701 9.75117 3.26006 9.75047 3.25001 9.75045C3.22156 9.75045 3.19339 9.75606 3.16711 9.76696C3.14082 9.77785 3.11694 9.79381 3.09683 9.81393L2.60933 10.3014L1.18427 8.69833C1.85964 8.17942 2.39246 7.49779 2.73297 6.71713H5.85001V11.5137C5.60446 11.3641 5.34206 11.2441 5.0683 11.1561L5.0683 11.1561ZM6.50001 12.2332C6.43781 12.1196 6.36529 12.0119 6.28335 11.9116V6.50045C6.28335 6.44299 6.26052 6.38788 6.21989 6.34725C6.17925 6.30661 6.12414 6.28379 6.06668 6.28379H2.89149C2.93552 6.14128 2.97236 5.99665 3.00186 5.85045H6.06668C6.12414 5.85045 6.17925 5.82762 6.21989 5.78699C6.26052 5.74636 6.28335 5.69125 6.28335 5.63379V1.72426C6.35555 1.72748 6.4265 1.73379 6.50001 1.73379C6.57353 1.73379 6.64447 1.72748 6.71668 1.72426V5.63379C6.71668 5.69125 6.73951 5.74636 6.78014 5.78699C6.82077 5.82762 6.87588 5.85045 6.93335 5.85045H9.99817C10.0277 5.99665 10.0645 6.14128 10.1085 6.28379H6.93335C6.87588 6.28379 6.82077 6.30661 6.78014 6.34725C6.73951 6.38788 6.71668 6.44299 6.71668 6.50045V11.9116C6.63474 12.0119 6.56221 12.1196 6.50001 12.2332ZM10.3907 10.3014L9.9032 9.81393C9.87949 9.79022 9.8506 9.77234 9.81881 9.76169C9.78701 9.75105 9.75318 9.74792 9.71998 9.75257C9.68677 9.75721 9.6551 9.7695 9.62745 9.78846C9.5998 9.80743 9.57693 9.83255 9.56064 9.86185C9.07134 10.7426 8.49201 10.9528 7.93172 11.1561C7.65796 11.2441 7.39557 11.3641 7.15001 11.5137V6.71712H10.2671C10.6076 7.49779 11.1404 8.17941 11.8158 8.69832L10.3907 10.3014Z" fill="black"/>
<path d="M12.2608 8.49192C10.0539 6.88692 9.72483 4.22217 11.4419 1.86127C11.4737 1.81754 11.488 1.76347 11.482 1.70972C11.476 1.65596 11.4501 1.60639 11.4094 1.57076L9.67606 0.0540957C9.63469 0.0179076 9.58111 -0.00120848 9.52617 0.000617003C9.47123 0.00244249 9.41904 0.0250732 9.38016 0.063928C9.01302 0.459698 8.56707 0.774192 8.07102 0.987161C7.57497 1.20013 7.03981 1.30685 6.50001 1.30045C5.96021 1.30685 5.42506 1.20013 4.929 0.987161C4.43295 0.774192 3.987 0.459698 3.61986 0.063928C3.58098 0.025069 3.52879 0.00243483 3.47385 0.000608099C3.41892 -0.00121863 3.36534 0.0178986 3.32396 0.0540892L1.59063 1.57076C1.54993 1.60639 1.52403 1.65595 1.51802 1.70971C1.51201 1.76347 1.52632 1.81753 1.55815 1.86127C3.27519 4.22217 2.94617 6.88692 0.739197 8.49191C0.714756 8.50971 0.694309 8.53242 0.679168 8.55859C0.664027 8.58476 0.654527 8.61381 0.651279 8.64387C0.648031 8.67393 0.651107 8.70433 0.660308 8.73313C0.669509 8.76193 0.684633 8.78849 0.704708 8.8111L2.43804 10.7611C2.45767 10.7832 2.4816 10.801 2.50836 10.8135C2.53512 10.8259 2.56415 10.8328 2.59366 10.8337C2.62324 10.8351 2.65279 10.8302 2.68031 10.8193C2.70783 10.8084 2.73269 10.7917 2.7532 10.7703L3.20748 10.3161C3.74438 11.1367 4.36635 11.3623 4.9205 11.5634C5.52067 11.7813 5.99474 11.9533 6.29445 12.8523C6.30885 12.8955 6.33644 12.933 6.37333 12.9596C6.41022 12.9861 6.45454 13.0005 6.50001 13.0005C6.54548 13.0005 6.5898 12.9861 6.62669 12.9596C6.66358 12.933 6.69118 12.8955 6.70557 12.8523C7.00528 11.9533 7.47935 11.7813 8.07951 11.5634C8.63366 11.3623 9.25563 11.1367 9.79253 10.3161L10.2468 10.7703C10.2674 10.7916 10.2922 10.8083 10.3198 10.8192C10.3473 10.8301 10.3768 10.8351 10.4064 10.8337C10.4359 10.8328 10.4649 10.8259 10.4917 10.8135C10.5184 10.801 10.5424 10.7832 10.562 10.7611L12.2953 8.8111C12.3154 8.78849 12.3305 8.76193 12.3397 8.73313C12.3489 8.70433 12.352 8.67393 12.3488 8.64387C12.3455 8.61381 12.336 8.58476 12.3209 8.55859C12.3057 8.53242 12.2853 8.50972 12.2608 8.49192ZM9.54054 0.511334L10.977 1.76816C10.1522 2.96834 9.81263 4.23392 9.93235 5.41711H7.15001V1.68461C8.05073 1.55569 8.88754 1.14498 9.54054 0.511334ZM2.02301 1.76816L3.45949 0.511334C4.11248 1.14498 4.94929 1.55569 5.85001 1.68461V5.41712H3.06768C3.1874 4.23393 2.84785 2.96835 2.02301 1.76816ZM5.0683 11.1561C4.50801 10.9528 3.92868 10.7426 3.43939 9.86184C3.42309 9.83255 3.40022 9.80743 3.37257 9.78847C3.34492 9.76951 3.31326 9.75721 3.28006 9.75256C3.2701 9.75117 3.26006 9.75047 3.25001 9.75045C3.22156 9.75046 3.19339 9.75607 3.16711 9.76696C3.14082 9.77785 3.11694 9.79381 3.09683 9.81394L2.60933 10.3014L1.18427 8.69833C1.85964 8.17942 2.39246 7.49779 2.73297 6.71713H5.85001V11.5137C5.60446 11.3641 5.34206 11.2441 5.0683 11.1561ZM6.50001 12.2332C6.43781 12.1196 6.36528 12.0119 6.28335 11.9116V6.50045C6.28335 6.44299 6.26052 6.38788 6.21988 6.34725C6.17925 6.30661 6.12414 6.28379 6.06668 6.28379H2.89149C2.93552 6.14128 2.97236 5.99666 3.00186 5.85045H6.06668C6.12414 5.85045 6.17925 5.82762 6.21988 5.78699C6.26052 5.74636 6.28335 5.69125 6.28335 5.63379V1.72426C6.35555 1.72748 6.4265 1.73379 6.50001 1.73379C6.57352 1.73379 6.64447 1.72748 6.71668 1.72426V5.63379C6.71668 5.69125 6.73951 5.74636 6.78014 5.78699C6.82077 5.82762 6.87588 5.85045 6.93334 5.85045H9.99817C10.0277 5.99666 10.0645 6.14128 10.1085 6.28379H6.93334C6.87588 6.28379 6.82077 6.30661 6.78014 6.34725C6.73951 6.38788 6.71668 6.44299 6.71668 6.50045V11.9116C6.63474 12.0119 6.56221 12.1196 6.50001 12.2332ZM10.3907 10.3014L9.9032 9.81393C9.87949 9.79022 9.8506 9.77234 9.8188 9.76169C9.78701 9.75105 9.75318 9.74792 9.71998 9.75257C9.68677 9.75721 9.6551 9.7695 9.62745 9.78847C9.5998 9.80743 9.57693 9.83255 9.56063 9.86185C9.07134 10.7426 8.49201 10.9528 7.93172 11.1561C7.65796 11.2441 7.39556 11.3641 7.15001 11.5137V6.71712H10.2671C10.6076 7.49779 11.1404 8.17941 11.8158 8.69832L10.3907 10.3014Z" fill="#F0EEE8"/>
</g>
<defs>
<clipPath id="clip0_27:97">
<rect width="13" height="13" fill="white"/>
</clipPath>
</defs>
</svg>
