<svg width="62" height="82" viewBox="0 0 62 52" fill="none" xmlns="http://www.w3.org/2000/svg">
<path d="M5.72484 56.7053C5.95863 56.7946 6.71383 56.8343 8.68466 56.8442L9.78408 56.8507L10.1208 57.1318C10.6871 57.6086 11.3213 57.7202 12.0082 57.4615C12.2102 57.389 12.4724 57.2349 12.5879 57.1175C12.7889 56.9133 12.8344 56.9079 14.8459 56.9275L16.8979 56.957L17.2702 57.253C17.4896 57.4388 17.79 57.6137 18.0134 57.6829C18.6739 57.9006 19.5335 57.7014 20.0058 57.2316L20.242 57.0017L22.3194 57.0361L24.3968 57.0705L24.7079 57.3163C25.07 57.6022 25.5779 57.7603 26.0234 57.7163C26.4436 57.6776 27.0395 57.45 27.2354 57.2509C27.366 57.1181 27.5127 57.0916 28.1158 57.1122C28.506 57.1244 29.7524 57.145 30.8722 57.1615L32.9243 57.191L33.3176 57.5781C33.9612 58.2113 34.6069 58.4849 35.458 58.4884C36.218 58.4925 36.8492 58.2394 37.4424 57.6876L37.9049 57.2584L41.3604 57.3022L44.821 57.3409L45.1223 57.6374C46.2665 58.7633 47.9392 58.8616 49.2482 57.8787C49.4849 57.6995 49.7165 57.5356 49.7518 57.5099C49.7922 57.4894 50.7001 57.619 51.7705 57.7981C53.1251 58.0256 53.7641 58.1016 53.8649 58.04C54.0817 57.9117 54.0903 57.7292 54.0541 55.2015C54.036 53.626 53.9945 52.9019 53.9179 52.8265C53.7646 52.6757 53.5874 52.6923 51.5389 53.0883C49.7837 53.4213 49.7382 53.4267 49.5595 53.2609C49.4624 53.1654 49.2025 52.98 48.9835 52.8449C47.6851 52.0597 46.1414 52.239 45.0864 53.3112L44.79 53.6124L41.3458 53.7104L37.9017 53.8184L37.4424 53.4168C36.6463 52.7239 35.8084 52.4822 34.893 52.6768C34.2406 52.8086 33.701 53.1117 33.2793 53.5811L32.9329 53.9537L30.1421 54.0414C27.6501 54.1116 27.3411 54.109 27.198 53.9683C26.9784 53.7521 26.1708 53.5001 25.8063 53.5334C25.376 53.5722 24.7953 53.8047 24.5793 54.0243C24.4135 54.1928 24.2414 54.2144 22.3117 54.2751L20.2199 54.3371L19.9798 54.1009C19.8163 53.94 19.5975 53.8151 19.2724 53.7163C18.5205 53.4689 17.8529 53.6059 17.2494 54.1375L16.8873 54.4544L15.9855 54.4514C15.489 54.4553 15.1292 54.4429 15.1848 54.4273C15.2353 54.4066 15.3003 54.2997 15.3247 54.1931C15.3976 53.8227 14.9549 53.5881 14.6887 53.8587C14.548 54.0016 14.5495 54.184 14.6976 54.3298C14.764 54.3951 14.8001 54.4607 14.7749 54.4862C14.7548 54.5066 14.294 54.5254 13.7469 54.5297C12.835 54.5369 12.7487 54.5224 12.5598 54.3364C12.1512 53.9444 11.3392 53.7786 10.7431 53.9757C10.5814 54.0277 10.2991 54.2021 10.1079 54.3556L9.76072 54.6471L7.99303 54.6964C5.75425 54.7545 5.33977 54.8692 5.09152 55.4791C4.90289 55.9467 5.1912 56.5017 5.72484 56.7053ZM5.84312 55.6962C5.98881 55.5481 6.29251 55.5153 7.9285 55.467L9.48343 55.4194L9.48118 55.7588L9.47885 56.0881L7.92835 56.0598C7.07209 56.0513 6.27645 56.0221 6.15973 55.9976C5.87051 55.9442 5.7326 55.8085 5.84312 55.6962ZM10.3195 56.0511C10.065 55.2881 10.7578 54.5329 11.5646 54.6836C11.8132 54.7273 11.9049 54.7874 12.1401 55.0489C12.3805 55.3257 12.4167 55.4115 12.4143 55.7307C12.422 56.0498 12.3872 56.1362 12.1515 56.4167C11.9206 56.682 11.8299 56.7435 11.5821 56.791C11.0156 56.9069 10.5065 56.6069 10.3195 56.0511ZM13.2046 55.7245C13.203 55.532 13.2167 55.3546 13.2419 55.3392C13.262 55.3188 14.0165 55.2774 14.9181 55.2602L16.5541 55.2119L16.5582 55.6982L16.5622 56.1846L14.9256 56.1619C14.0238 56.1589 13.2687 56.1293 13.2483 56.1092C13.2228 56.0942 13.2062 55.917 13.2046 55.7245ZM17.3612 56.006C17.0215 54.7574 18.6148 53.8329 19.5292 54.7427C19.8459 55.0645 19.9389 55.2766 19.9324 55.7123C19.9291 56.5432 19.1438 57.1471 18.3266 56.956C17.8799 56.848 17.4814 56.456 17.3612 56.006ZM20.7071 55.6606L20.7075 55.0983L22.2674 55.0455L23.8325 54.9978L23.8529 55.6309L23.8633 56.2641L22.3028 56.256C21.4364 56.2476 20.7321 56.238 20.722 56.238C20.7169 56.233 20.7097 55.9747 20.7071 55.6606ZM24.7752 56.2671C24.601 56.0252 24.5555 55.4278 24.6847 55.1329C24.8388 54.772 25.201 54.4652 25.57 54.3661C26.5153 54.1104 27.4294 54.9898 27.189 55.929C27.0222 56.5889 26.3067 57.0606 25.6874 56.9134C25.3676 56.84 25.0777 56.6953 24.9905 56.5693C24.9597 56.5189 24.8623 56.3829 24.7752 56.2671ZM27.9794 55.943C28.0184 55.7603 28.0159 55.4564 27.9739 55.2743C27.9318 55.0821 27.9304 54.92 27.9556 54.9046C27.9859 54.8943 29.0343 54.8506 30.2954 54.8052L32.5796 54.7316L32.5415 55.0257C32.494 55.401 32.4968 55.7455 32.5506 56.1199L32.5936 56.4134L30.2881 56.3758C29.0214 56.3553 27.9674 56.3231 27.947 56.3131C27.9266 56.293 27.9455 56.1307 27.9794 55.943ZM33.4081 56.2804C33.045 55.2599 33.5167 54.1062 34.5055 53.6019C34.9797 53.355 35.8561 53.3431 36.3241 53.5724C37.1226 53.9563 37.5743 54.662 37.5816 55.5333C37.5838 56.4098 37.1439 57.1225 36.3668 57.5035C35.8875 57.7352 35.0973 57.7617 34.6397 57.5626C34.1364 57.3487 33.5794 56.7705 33.4081 56.2804ZM38.3452 55.9833C38.3888 55.7448 38.3856 55.3497 38.3379 55.1018C38.2953 54.8489 38.2681 54.6312 38.2831 54.6058C38.3133 54.5751 41.975 54.44 43.9657 54.3991L44.4064 54.3906L44.3274 54.6445C44.214 55.0152 44.2054 55.8107 44.3202 56.2151L44.4143 56.569L43.9786 56.5623C41.9926 56.5576 38.3291 56.4799 38.2984 56.4498C38.278 56.4297 38.3016 56.2218 38.3452 55.9833ZM45.2032 56.3905C44.9504 55.8504 44.9442 55.1007 45.1929 54.5415C45.6852 53.4281 46.9826 52.8758 48.136 53.2772C48.7356 53.4954 49.3077 54.0583 49.5102 54.6494C49.6917 55.1496 49.6871 55.8183 49.5088 56.3061C49.3155 56.8294 48.7125 57.4218 48.1721 57.6237C47.5306 57.8567 46.8007 57.8117 46.1952 57.4973C45.8593 57.3176 45.394 56.7994 45.2032 56.3905ZM50.3142 56.2947C50.4618 55.7667 50.4562 55.098 50.2999 54.5723C50.2423 54.3448 50.195 54.1476 50.2101 54.1323C50.2202 54.1221 50.908 53.9849 51.7325 53.8316L53.2349 53.5513L53.2503 55.4054C53.2587 56.4185 53.2504 57.2545 53.2302 57.2547C53.1136 57.2505 50.2725 56.7662 50.2368 56.7411C50.2215 56.7261 50.2604 56.5231 50.3142 56.2947Z" fill="#F0EEE8"/>
<path d="M14.7473 0.07658C13.8383 0.225658 13.1542 0.470573 12.2062 1.003C10.6229 1.88683 9.17639 3.70773 8.58998 5.57122C8.11108 7.06202 8.03289 8.96811 8.39451 10.4483C8.74635 11.9178 9.74325 13.6854 10.7108 14.5692L11.1897 15.0165L10.5251 15.1443C9.74325 15.2827 9.40118 15.4637 8.9516 15.9429C8.39451 16.5392 8.19904 17.0503 8.19904 17.9555C8.19904 18.637 8.23813 18.8287 8.48247 19.3185C9.00046 20.3301 9.68461 20.7241 11.1311 20.8199L12.0987 20.8838L12.3235 21.6505C12.8414 23.4608 12.8121 25.4094 12.2355 27.0813L12.0498 27.6456H11.2875C9.83121 27.6456 8.97114 28.1355 8.45315 29.2536C8.11108 30.0096 8.06221 30.7124 8.30655 31.4259C8.38473 31.6601 8.47269 31.9264 8.50202 32.0115C8.53134 32.118 8.40428 32.2565 8.1013 32.4268C7.59308 32.725 6.77211 33.6514 6.4789 34.2584C6.02932 35.238 6 35.5895 6 40.8498C6 46.238 6.01955 46.5042 6.55709 47.5797C6.86984 48.208 7.60285 49.0066 8.21858 49.39C9.27412 50.0502 7.92538 50.0182 32.0464 49.9863L54.0367 49.9543L54.4765 49.7307C55.0141 49.4645 55.4832 48.964 55.7764 48.3677C56.0696 47.7501 56.0794 46.5149 55.7764 45.8972C55.5223 45.3755 54.8773 44.7152 54.3984 44.5023C54.2127 44.4171 53.6165 44.3106 53.0692 44.2787L52.0918 44.2041L51.8768 43.4481C51.3392 41.5952 51.3686 39.7104 51.955 38.0067L52.1407 37.4423H52.9421C53.3819 37.4423 53.9097 37.3891 54.1051 37.3358C54.7209 37.1441 55.3659 36.5904 55.6885 35.9515C55.9523 35.4404 55.9914 35.2593 55.9914 34.5672C55.9914 33.9602 55.9328 33.6621 55.7764 33.3426C55.5028 32.7782 55.0141 32.2884 54.4765 32.0222C54.0661 31.8199 53.8413 31.7986 51.1829 31.7986C49.6093 31.7986 48.3192 31.7773 48.3192 31.756C48.3192 31.7347 48.4756 31.4472 48.6613 31.1064C49.2673 30.0096 49.2477 30.2226 49.2477 24.1742V18.637L48.8861 17.8383C48.2313 16.3901 47.078 15.4424 45.6804 15.1975C45.3285 15.1336 44.576 15.0804 43.9994 15.0804H42.9438L43.0513 14.7822C43.11 14.6225 43.1588 14.2072 43.1686 13.8558C43.1784 12.1733 41.9762 10.9274 40.3538 10.9274C39.7479 10.9274 39.7186 10.8635 39.4645 9.52183C39.2788 8.51022 39.3178 7.49861 39.6013 6.50829L39.7772 5.86938L40.5982 5.75225C41.5462 5.62447 41.9078 5.44344 42.416 4.88972C43.6768 3.5267 43.3348 1.21597 41.7319 0.300198L41.2335 0.0126877L28.2836 0.00203705C21.1587 -0.00860977 15.0698 0.0233345 14.7473 0.07658ZM41.038 1.7271C41.8981 2.17434 41.9371 3.38828 41.1162 3.97394C40.8718 4.15497 40.3245 4.16562 33.7274 4.21886C26.8175 4.2721 26.6025 4.28275 26.4657 4.47443C26.3093 4.71934 26.2898 5.10269 26.4266 5.3902C26.6221 5.79484 26.9641 5.81614 32.711 5.81614C37.9691 5.81614 38.2721 5.82679 38.2037 5.99717C38.1646 6.10365 38.0668 6.57219 37.9887 7.04072C37.8225 8.00974 37.8714 9.3621 38.1059 10.2885C38.1841 10.608 38.2525 10.8848 38.2525 10.8955C38.2525 10.9168 33.0921 10.9274 26.798 10.9274C15.4803 10.9274 15.3239 10.9168 14.8939 10.7038C13.9654 10.2459 13.4963 9.46859 13.4865 8.37179C13.4865 7.60509 13.6917 7.05137 14.1706 6.51894C14.7864 5.85873 14.6398 5.86938 19.3701 5.81614L23.7096 5.7629L23.9441 5.46474C24.2276 5.10269 24.2373 4.86842 23.9735 4.49572L23.778 4.21886H19.4288C15.3435 4.21886 15.0503 4.22951 14.5323 4.43183C12.8708 5.07074 11.7664 7.04072 12.0302 8.89357C12.2355 10.3311 13.0858 11.577 14.2782 12.184L14.845 12.4715L27.9122 12.5247L40.9793 12.578L41.253 12.8016C41.859 13.2914 41.8687 14.2604 41.2628 14.8142L40.9696 15.0804L27.7167 15.0591L14.4541 15.0271L13.7993 14.7503C11.3266 13.6961 9.79212 11.4812 9.64551 8.74449C9.45004 5.29436 11.7077 2.24888 14.8548 1.67386C15.1187 1.62062 21.0414 1.57802 28.0197 1.56738C39.4254 1.55672 40.7448 1.57802 41.038 1.7271ZM46.1495 16.9865C46.7848 17.2953 47.4592 18.0939 47.6742 18.7754C47.9088 19.5208 47.9088 28.9554 47.6742 29.7008C47.4592 30.3823 46.7848 31.181 46.1495 31.4898L45.6315 31.7453L35.9851 31.7773L26.3289 31.8092V30.5207V29.2429H35.3205C42.9927 29.2429 44.361 29.2216 44.5955 29.0938C45.0549 28.8276 45.4654 28.2313 45.5338 27.7308C45.5631 27.4753 45.5827 25.7396 45.5631 23.8548L45.5338 20.4366L45.2895 20.0532C45.1624 19.8403 44.8887 19.5741 44.6933 19.4569C44.3317 19.2333 44.3023 19.2333 27.5115 19.2333C9.44027 19.2333 10.3101 19.2546 9.86053 18.7009C9.7237 18.5411 9.66506 18.3175 9.66506 17.9555C9.66506 17.3805 9.86053 17.061 10.3492 16.8267C10.5935 16.7096 13.7504 16.6883 28.137 16.7096L45.6315 16.7309L46.1495 16.9865ZM44.0678 24.2381V27.5924L35.2032 27.6243L26.3289 27.6456V26.3146V24.9835H29.0557H31.7923L31.9877 24.7066C32.2516 24.3339 32.2418 24.0997 31.9584 23.7376L31.7238 23.4395L22.9179 23.4075L14.112 23.3862V23.1413C14.112 22.907 13.7895 21.3524 13.6722 21.0116C13.6038 20.8412 14.3466 20.8306 28.8309 20.8519L44.0678 20.8838V24.2381ZM18.686 26.3359L18.7153 27.6456H16.1547C13.7602 27.6456 13.6038 27.635 13.6722 27.454C13.7113 27.3581 13.8286 26.8151 13.9361 26.2613C14.0436 25.7076 14.1511 25.1858 14.1706 25.1113C14.2 25.0048 14.6984 24.9835 16.4283 25.0048L18.6567 25.0368L18.686 26.3359ZM24.8433 31.9796C24.8531 35.8024 24.8335 38.9331 24.8042 38.9331C24.7651 38.9331 24.3058 38.4752 23.7682 37.9215C22.5563 36.6437 22.4781 36.633 21.5594 37.5701C21.1978 37.9321 20.7384 38.4007 20.543 38.603L20.1716 38.9757V31.9796V24.9835L22.4977 25.0048L24.814 25.0368L24.8433 31.9796ZM18.686 30.4888L18.6567 31.7453L14.8939 31.7773C12.8219 31.7986 10.9454 31.7773 10.7108 31.7453C10.4469 31.7027 10.1733 31.5643 9.97781 31.3726C9.70416 31.1064 9.66506 30.9999 9.66506 30.542C9.66506 29.9777 9.91917 29.5411 10.3492 29.3494C10.4567 29.2962 12.3821 29.2536 14.63 29.2536L18.7153 29.2429L18.686 30.4888ZM18.7055 34.6204V35.845H14.8939C11.8934 35.845 11.004 35.877 10.7597 35.9941C10.3492 36.1751 9.94849 36.6969 9.81166 37.208C9.67483 37.7724 9.69438 44.2148 9.84098 44.6301C10.0169 45.1092 10.2124 45.3755 10.5935 45.631L10.9356 45.8546H32.1441C45.8759 45.8546 53.4796 45.8972 53.7044 45.9611C54.1638 46.0996 54.4863 46.4936 54.5352 46.994C54.5938 47.4945 54.4277 47.8459 53.9976 48.1654L53.6653 48.4103L31.6163 48.389L9.56733 48.357L9.06888 48.0695C8.79522 47.9098 8.38473 47.5584 8.15994 47.2815C7.45625 46.419 7.45625 46.3551 7.48557 40.6262L7.51489 35.5788L7.77878 35.0464C8.01334 34.5672 8.287 34.2158 8.75613 33.8324C9.2448 33.4278 9.55755 33.4065 14.1902 33.3959H18.7055V34.6204ZM54.1051 33.6088C54.6622 34.088 54.7013 34.9399 54.1736 35.483L53.8804 35.7918L46.8434 35.845C40.0118 35.8983 39.7968 35.9089 39.6599 36.1006C39.4351 36.452 39.484 36.9738 39.7772 37.2187C40.0313 37.4423 40.1291 37.4423 45.309 37.4423C50.0198 37.4423 50.5867 37.4636 50.528 37.602C50.3619 38.0919 50.1762 38.9863 50.0687 39.785C49.9416 40.8924 50.0198 42.0744 50.3228 43.3203L50.5378 44.2574L30.8833 44.2361L11.2288 44.2041V40.8498V37.4955L14.9721 37.4636L18.7055 37.4423V39.0076C18.7055 40.7327 18.774 41.0202 19.2235 41.2545C19.7122 41.51 20.025 41.329 21.3151 40.0192L22.527 38.7947L23.5727 39.9128C25.0192 41.4674 25.3808 41.6378 25.9575 41.0734L26.28 40.7646L26.3093 39.1035L26.3484 37.4423H31.5577H36.7767L37.0211 37.1974C37.3729 36.8566 37.4022 36.4094 37.0797 36.058C36.8842 35.845 36.7572 35.845 31.6066 35.845H26.3289V34.6204V33.3959H40.0997C53.636 33.3959 53.8706 33.3959 54.1051 33.6088Z" fill="#F0EEE8"/>
</svg>
